<svg width="13" height="20" viewBox="0 0 13 20" fill="none" xmlns="http://www.w3.org/2000/svg">
    <path d="M0.808535 0.160567C0.202676 0.463497 -0.0744726 1.10803 0.118887 1.76545C0.189785 2.00393 0.305801 2.1715 0.557168 2.41643C0.744082 2.5969 2.70346 4.28557 4.9142 6.17404C7.1185 8.06252 8.92318 9.62229 8.91674 9.64807C8.91674 9.67385 7.13139 11.2143 4.95287 13.077C-0.0551362 17.3502 0.18334 17.1311 0.060879 17.5436C-0.287168 18.7102 0.924551 19.7285 1.98158 19.1613C2.36186 18.9551 11.9654 10.718 12.1845 10.4086C12.597 9.82854 12.5132 9.14533 11.9718 8.61682C11.8042 8.45568 9.50971 6.48342 6.88002 4.234C3.29643 1.16604 2.03959 0.12834 1.84623 0.0703326C1.45951 -0.045683 1.18236 -0.0199018 0.808535 0.160567Z" fill="#5B5B5B"/>
</svg>
