<svg width="20" height="17" viewBox="0 0 20 17" fill="none" xmlns="http://www.w3.org/2000/svg">
    <path d="M8.04139 0.0815184C7.92012 0.131996 7.75191 0.229068 7.66976 0.295076C7.36855 0.535815 0.30761 7.58712 0.209813 7.7502C0.0611616 7.98705 -0.0248997 8.34816 0.00639528 8.62384C0.0611616 9.13638 -0.15008 8.90729 3.97304 13.0076C7.08298 16.0984 7.78712 16.7779 7.96315 16.8672C8.26828 17.0186 8.75335 17.0458 9.07804 16.9215C9.4262 16.7895 9.67656 16.5721 9.82521 16.2653C9.93474 16.0324 9.94647 15.9741 9.94647 15.6402C9.94647 14.9995 10.0091 15.0811 7.748 12.8096C6.67615 11.7301 5.65906 10.7284 5.48302 10.5769C5.30699 10.4216 5.02142 10.2236 4.82974 10.1265L4.49332 9.95179L18.8656 9.91296L19.0885 9.82365C19.4054 9.69552 19.7144 9.4043 19.8709 9.08591C19.9883 8.85293 20 8.79469 20 8.49571C19.9961 8.22391 19.9804 8.12684 19.8944 7.94434C19.7575 7.64924 19.5071 7.38909 19.2176 7.24154L18.9829 7.11729L4.46985 7.07846L4.84148 6.88432L5.2131 6.69406L7.46635 4.45752C10.0677 1.87929 9.94647 2.0346 9.94647 1.37063C9.94647 1.02506 9.93474 0.959048 9.83694 0.764904C9.77826 0.644535 9.64135 0.46204 9.53573 0.364968C9.25407 0.100933 9.04283 0.0193924 8.61644 0.00386086C8.31522 -0.00778776 8.23307 0.00386087 8.04139 0.0815184Z" fill="#5B5B5B"/>
</svg>
