<svg width="19" height="21" viewBox="0 0 19 21" fill="none" xmlns="http://www.w3.org/2000/svg">
    <path d="M4.98105 0.0504366C3.17723 0.178821 2.18171 0.527293 1.37798 1.30218C0.510321 2.1321 0.163257 3.15459 0.0445247 5.22707C-0.0148416 6.30459 -0.0148416 17.7262 0.0445247 18.4919C0.140424 19.6886 0.428122 20.326 1.04005 20.7157C1.38711 20.9404 1.72505 21.0138 2.25477 20.9862C3.23203 20.9404 4.16819 20.459 6.25515 18.9321C7.15021 18.2764 7.99503 17.74 8.31013 17.6299C8.41516 17.5932 8.55673 17.5749 8.62523 17.5932C8.93576 17.6666 9.72122 18.1434 10.6026 18.79C12.9361 20.5094 13.8997 21 14.9363 21C15.9136 21 16.5803 20.4727 16.8452 19.4869C17.0141 18.8496 17.0324 18.3773 17.0324 14.269V10.2845L16.9319 10.1332C16.7767 9.90393 16.6077 9.80306 16.3611 9.78013C16.0917 9.75721 15.8268 9.89476 15.6898 10.1332C15.5939 10.2891 15.5939 10.3624 15.5665 14.512C15.5482 18.0655 15.53 18.7716 15.4752 18.9825C15.3473 19.4456 15.2605 19.5328 14.918 19.5328C14.3244 19.5328 13.4248 19.0467 11.7853 17.8408C10.4975 16.8917 9.73035 16.4194 9.17779 16.2269C8.81703 16.1031 8.301 16.0893 7.96307 16.1948C7.41964 16.3644 6.63874 16.8367 5.36465 17.7675C3.8942 18.8404 3.2777 19.2164 2.62924 19.441C2.30501 19.5511 1.93054 19.5603 1.79354 19.464C1.65198 19.3631 1.55608 19.0055 1.50585 18.3865C1.44648 17.6849 1.44648 6.30917 1.50585 5.30044C1.60175 3.63603 1.83921 2.85655 2.41461 2.32926C3.13157 1.669 4.25039 1.46725 7.18217 1.46725C7.94937 1.46725 8.62979 1.44891 8.71656 1.4214C8.93119 1.36179 9.16866 1.11878 9.22802 0.90786C9.31022 0.59607 9.14126 0.215502 8.85813 0.0687773C8.74853 0.00917027 8.45626 -3.22831e-08 7.11367 0.00458512C6.22775 0.00917027 5.26875 0.032096 4.98105 0.0504366Z" fill="white"/>
    <path d="M11.1049 0.0779476C10.8218 0.215502 10.6665 0.600655 10.7487 0.949127C10.7715 1.03624 11.2784 1.57729 12.2877 2.59061C13.1142 3.42511 13.7901 4.12664 13.7901 4.14956C13.7901 4.17707 13.1325 4.85568 12.3242 5.66266C11.5205 6.46965 10.8309 7.18493 10.7944 7.25371C10.7578 7.32249 10.7304 7.46921 10.7304 7.57926C10.7304 8.09738 11.3058 8.45502 11.7625 8.21659C11.863 8.16157 12.5799 7.47838 13.4019 6.65306L14.8632 5.18122L16.3931 6.71266C18.0462 8.37249 18.0279 8.35415 18.4344 8.2762C18.6581 8.23493 18.9321 7.95983 18.9732 7.73515C19.0508 7.32707 19.0691 7.34541 17.416 5.68559L15.8907 4.14956L17.3566 2.68231C18.1786 1.85699 18.859 1.13712 18.9138 1.03624C19.1513 0.577729 18.7951 0 18.2791 0C18.1695 0 18.0234 0.0275109 17.9549 0.0641921C17.8864 0.100873 17.174 0.793232 16.3702 1.60022C15.5665 2.41179 14.8906 3.07205 14.8632 3.07205C14.8358 3.07205 14.16 2.41179 13.3563 1.60022C12.5525 0.793232 11.8401 0.100873 11.7716 0.0641921C11.6072 -0.0229258 11.2921 -0.0183406 11.1049 0.0779476Z" fill="white"/>
</svg>
