<svg width="19" height="19" viewBox="0 0 19 19" fill="none" xmlns="http://www.w3.org/2000/svg">
    <path d="M8.73272 18.9841C8.65195 18.9756 8.43087 18.9459 8.2438 18.9204C4.47701 18.4192 1.33518 15.6922 0.331836 12.0561C0.0724969 11.1004 0.000222083 10.5737 0.000222083 9.51598C-0.00402938 8.46255 0.0512396 8.02503 0.297824 7.08204C0.705965 5.50614 1.50099 4.09165 2.63188 2.91928C4.11989 1.37311 5.93101 0.434361 8.11626 0.0775509C8.76248 -0.0286407 10.2207 -0.0243931 10.8797 0.0818005C12.9247 0.408875 14.6635 1.26691 16.1005 2.65167C17.631 4.12987 18.5919 5.99887 18.9235 8.13547C19.0255 8.81086 19.0255 10.1786 18.9235 10.854C18.5919 12.9906 17.631 14.8596 16.1005 16.3378C14.6763 17.7098 13.0097 18.5424 11.0073 18.8864C10.5183 18.9672 9.11961 19.0309 8.73272 18.9841ZM10.242 17.6079C12.2104 17.421 14.047 16.5417 15.3905 15.1357C16.8743 13.5853 17.6608 11.6228 17.6608 9.48625C17.6608 6.69125 16.2833 4.1766 13.8982 2.61344C12.9714 2.00602 11.73 1.56001 10.5481 1.40284C7.10441 0.952583 3.72025 2.77485 2.18972 5.90542C0.646444 9.05298 1.27566 12.7825 3.75851 15.2674C5.4506 16.9537 7.87393 17.8288 10.242 17.6079Z" fill="#CCCCCC"/>
    <path d="M12.1339 13.0161C12.0744 12.9949 11.4579 12.4087 10.7649 11.7121L9.49798 10.4505L8.2353 11.7121C6.86633 13.0713 6.87058 13.0713 6.4922 12.9991C6.28388 12.9609 6.02879 12.706 5.99053 12.4979C5.91826 12.1198 5.91826 12.1241 7.27872 10.7563L8.54141 9.49474L7.71237 8.6537C6.08406 7.00983 5.97778 6.89514 5.94802 6.71674C5.85448 6.22825 6.30514 5.80348 6.7898 5.92666C6.94711 5.96914 7.11717 6.1263 8.23105 7.2562L9.49373 8.53901L10.7819 7.2562C11.9001 6.14754 12.0956 5.96914 12.2529 5.92666C12.508 5.8587 12.7248 5.93091 12.9119 6.1348C13.0777 6.3217 13.1372 6.52134 13.0947 6.76771C13.0692 6.90364 12.9034 7.08629 11.7598 8.21193L10.4546 9.49474L11.7172 10.7393C12.4102 11.419 13.0012 12.0221 13.0267 12.0774C13.1075 12.243 13.0862 12.5786 12.9842 12.7442C12.8226 13.0076 12.4315 13.1308 12.1339 13.0161Z" fill="#CCCCCC"/>
</svg>
