<svg width="21" height="21" viewBox="0 0 21 21" fill="none" xmlns="http://www.w3.org/2000/svg">
<path d="M4.77314 0.0859231C4.09913 0.269336 3.59476 0.567381 3.1179 1.08094C2.51266 1.72288 2.24672 2.36941 2.21004 3.2773C2.19629 3.73125 2.20546 3.89632 2.28341 4.19895C2.59061 5.40948 3.46638 6.32195 4.67686 6.69336C5.1262 6.83551 6.00655 6.84468 6.46507 6.71629C7.66638 6.38615 8.59258 5.45991 8.92271 4.25856C9.05109 3.79544 9.04192 2.91965 8.89978 2.47029C8.55131 1.3423 7.75808 0.516943 6.6714 0.150118C6.16245 -0.0195392 5.2821 -0.0516364 4.77314 0.0859231ZM6.43297 1.64035C7.64804 2.22268 7.93231 3.76793 7.0107 4.74002C6.07074 5.73503 4.45218 5.46909 3.84236 4.22646C3.70022 3.92842 3.69105 3.88715 3.69105 3.40569C3.69105 2.91506 3.69563 2.89214 3.86528 2.55282C4.11288 2.05302 4.51638 1.70454 5.06659 1.52113C5.18122 1.48444 5.41048 1.4661 5.68559 1.47527C6.07074 1.48903 6.15786 1.50737 6.43297 1.64035Z" fill="#5B5B5B"/>
<path d="M14.6175 0.0629965C13.3886 0.370213 12.4808 1.24142 12.1002 2.47029C11.9581 2.91506 11.9489 3.80003 12.0727 4.25856C12.3983 5.44616 13.3382 6.39073 14.5349 6.71629C14.9934 6.84468 15.8738 6.83551 16.3231 6.69336C17.2677 6.40449 18.0288 5.77172 18.4415 4.93719C18.7303 4.35485 18.7762 4.13476 18.7762 3.38735C18.7716 2.79126 18.7624 2.6858 18.6478 2.35565C18.469 1.81917 18.2306 1.44318 17.7904 1.00299C17.3502 0.562796 16.9696 0.319774 16.4378 0.145532C16.1352 0.0492405 15.9701 0.0217286 15.4749 0.012558C15.0622 0.00338736 14.7963 0.0171433 14.6175 0.0629965ZM16.2406 1.65869C16.6624 1.86503 16.9605 2.17224 17.1622 2.59868C17.2998 2.88755 17.3089 2.93799 17.3089 3.41028C17.3089 3.88715 17.2998 3.933 17.1576 4.22646C16.5662 5.4324 15.0255 5.72586 14.0581 4.8088C12.9897 3.80003 13.3657 2.07137 14.7642 1.55322C14.9659 1.47986 15.1035 1.46152 15.4565 1.47527C15.86 1.48444 15.9288 1.50279 16.2406 1.65869Z" fill="#5B5B5B"/>
<path d="M10.179 7.08312C9.62424 7.17941 9.47293 7.22068 9.18406 7.33531C8.19367 7.74799 7.42336 8.6513 7.16659 9.70592C7.07031 10.1094 7.07031 10.8798 7.16659 11.2833C7.36834 12.104 7.88646 12.8469 8.58799 13.3329C9.53712 13.9794 10.8393 14.0895 11.9076 13.6126C13.6225 12.8377 14.3882 10.8018 13.6133 9.08232C13.1915 8.14233 12.2928 7.3995 11.3116 7.17024C11.0044 7.10146 10.367 7.05102 10.179 7.08312ZM11.1694 8.66505C12.036 8.99061 12.5725 9.88475 12.4303 10.7743C12.2561 11.8427 11.252 12.5901 10.2203 12.425C9.15197 12.2508 8.40459 11.2466 8.56965 10.2149C8.73472 9.18778 9.64716 8.4633 10.6605 8.555C10.8118 8.56876 11.041 8.6192 11.1694 8.66505Z" fill="#5B5B5B"/>
<path d="M4.99782 7.5875C2.49432 7.89013 0.4631 9.81138 0.0687773 12.2599C0.0320961 12.4846 0 12.8377 0 13.044C0 13.3558 0.0183406 13.443 0.105459 13.5668C0.247598 13.7823 0.476856 13.9061 0.73821 13.9061C0.981223 13.9061 1.13253 13.8235 1.30677 13.5897C1.41223 13.4521 1.43515 13.365 1.46725 12.9615C1.50852 12.4434 1.55437 12.2049 1.68734 11.8243C2.13668 10.5267 3.23712 9.50875 4.5714 9.16485C4.76856 9.11441 5.13996 9.0548 5.40131 9.03188C5.75895 9.00436 5.90568 8.97227 5.99738 8.90349C6.44214 8.57334 6.43755 8.00935 5.99279 7.67921C5.89192 7.60126 5.79105 7.58292 5.51135 7.57833C5.31878 7.57375 5.08493 7.57833 4.99782 7.5875Z" fill="#5B5B5B"/>
<path d="M15.131 7.61043C14.7183 7.78467 14.5395 8.31198 14.7779 8.66046C14.9659 8.94017 15.0806 8.99061 15.5987 9.03188C16.2314 9.0869 16.7221 9.21529 17.2172 9.4629C18.336 10.0177 19.1705 11.0723 19.4456 12.2829C19.4731 12.3975 19.5098 12.7001 19.5327 12.9615C19.574 13.475 19.6153 13.5759 19.8812 13.7777C20.1884 14.0161 20.6607 13.9198 20.8945 13.5668C20.9817 13.443 21 13.3558 21 13.0394C21 12.8331 20.9679 12.48 20.9312 12.2554C20.4865 9.66465 18.3039 7.70672 15.7133 7.58292C15.429 7.56916 15.1998 7.57833 15.131 7.61043Z" fill="#5B5B5B"/>
<path d="M9.53253 14.736C7.94149 15.0386 6.58428 15.9557 5.74061 17.2992C5.26376 18.0558 4.99782 18.849 4.90153 19.8028C4.84651 20.3393 4.85109 20.353 4.95655 20.5685C5.15371 20.9583 5.55721 21.105 5.94236 20.9216C6.21288 20.7932 6.28624 20.6373 6.35044 20.0412C6.4238 19.3626 6.52009 19.0095 6.74476 18.5281C7.17118 17.6064 7.92773 16.8682 8.84934 16.4693C9.45917 16.2079 9.71594 16.1575 10.5 16.1575C11.2841 16.1575 11.5408 16.2079 12.1507 16.4693C13.0723 16.8682 13.8288 17.6064 14.2552 18.5281C14.4799 19.0049 14.5762 19.3626 14.6496 20.0366C14.7138 20.6327 14.7734 20.7703 15.0439 20.9078C15.4932 21.1325 15.9655 20.9216 16.0985 20.431C16.1627 20.188 16.0801 19.4176 15.9288 18.8399C15.4886 17.1616 14.214 15.7127 12.6275 15.0753C11.9214 14.791 11.4675 14.7039 10.6376 14.6856C10.1103 14.6764 9.77555 14.6902 9.53253 14.736Z" fill="#5B5B5B"/>
</svg>
