<svg width="513" height="513" viewBox="0 0 513 513" fill="none" xmlns="http://www.w3.org/2000/svg">
    <path d="M399.408 1.38354C381.535 4.09424 366.374 10.9942 350.966 23.4387C346.035 27.3816 272.447 100.324 187.149 185.588L32.3296 340.713L30.4807 349.338C4.59536 469.471 -0.211916 493.129 0.527665 497.195C1.63704 502.862 7.55368 509.639 13.2238 511.487C15.5658 512.227 19.88 512.596 22.7151 512.227C26.413 511.734 143.883 486.721 168.906 481.177C172.234 480.314 480.269 173.636 490.5 160.822C524.89 117.82 518.111 54.8582 475.585 21.4673C454.753 5.20313 425.293 -2.55929 399.408 1.38354ZM426.896 41.3047C456.849 47.5886 477.434 77.5294 472.38 107.47C469.545 124.597 465.108 131.251 438.483 158.357L414.816 182.507L372.906 140.492L330.997 98.5989L355.773 73.9562C377.221 52.5171 381.535 48.8207 388.561 45.7404C402.12 39.5797 412.844 38.3476 426.896 41.3047ZM342.091 255.203C317.684 279.6 264.681 332.212 224.374 372.133L150.909 444.582L98.7686 455.795C70.0482 461.955 46.3817 466.884 46.1351 466.638C46.0119 466.514 50.8191 442.734 56.9823 414.025L68.076 361.66L185.3 244.237L302.646 126.938L386.465 210.723L342.091 255.203Z" fill="#5B5B5B"/>
</svg>
