<svg width="32" height="23" viewBox="0 0 32 23" fill="none" xmlns="http://www.w3.org/2000/svg">
    <path d="M2.25893 0.0631251C1.18414 0.280385 0.271822 1.2261 0.0656122 2.35074C-0.0218707 2.8236 -0.0218707 20.166 0.0656122 20.6389C0.278071 21.7891 1.18414 22.7156 2.30892 22.9329C2.77133 23.0224 29.2287 23.0224 29.6911 22.9329C30.8159 22.7156 31.7219 21.7891 31.9344 20.6389C32.0219 20.166 32.0219 2.8236 31.9344 2.35074C31.7219 1.20054 30.8159 0.273995 29.6911 0.0567351C29.2724 -0.0199448 2.6651 -0.0199448 2.25893 0.0631251ZM23.2798 7.50747C19.5306 11.3223 17.6747 13.169 17.4372 13.316C16.5624 13.8591 15.4376 13.8591 14.5628 13.316C14.3253 13.169 12.4694 11.3223 8.72017 7.50747L3.22125 1.91622H28.7788L23.2798 7.50747ZM7.47042 8.93243L9.96993 11.4948L6.84554 14.6962C5.12712 16.4535 3.30873 18.3002 2.80258 18.7922L1.87776 19.6868V3.30285L3.42746 4.83645C4.27729 5.67993 6.09569 7.52664 7.47042 8.93243ZM30.1097 15.5972L30.091 19.706L22.0301 11.4948L30.091 3.29007L30.1097 7.39245C30.116 9.64811 30.116 13.3415 30.1097 15.5972ZM11.9695 13.546C13.1006 14.709 13.7567 15.1755 14.6878 15.4694C15.0814 15.5908 15.2939 15.6164 16 15.6164C16.9623 15.6164 17.4622 15.495 18.1871 15.0924C18.7245 14.7984 19.0057 14.5556 19.918 13.6482L20.6803 12.8814L22.1675 14.3575C22.9861 15.1691 24.8045 17.0094 26.2168 18.4535L28.7788 21.0798L3.22125 21.0734L7.23921 16.9902C9.45128 14.7409 11.2759 12.9006 11.3009 12.9006C11.3259 12.9006 11.6259 13.1882 11.9695 13.546Z" fill="white"/>
</svg>
