<svg width="41" height="41" viewBox="0 0 41 41" fill="none" xmlns="http://www.w3.org/2000/svg">
    <path d="M35.0374 0.0856391C34.3793 0.213897 33.6812 0.486446 33.1675 0.807091C32.5496 1.2079 18.1687 15.5007 17.936 15.9656C17.7514 16.3103 16.331 22.5629 16.331 23.0198C16.331 23.9016 17.1094 24.6791 18.0002 24.6872C18.2971 24.6872 23.8023 23.5088 24.7974 23.2282C25.0703 23.1481 26.1697 22.0899 32.4453 15.8373C37.8622 10.4425 39.8765 8.38234 40.1654 7.94947C40.3981 7.61279 40.6549 7.09174 40.7753 6.70697C40.9679 6.14584 41 5.91337 41 5.08771C41 3.9895 40.8876 3.50853 40.4222 2.60271C39.4752 0.767011 37.1319 -0.323184 35.0374 0.0856391ZM36.7547 3.58869C37.3165 3.86124 37.6054 4.35022 37.6054 5.00755C37.6054 5.89734 37.8542 5.6328 30.3508 13.1199L24.5674 18.9035C23.8265 19.6445 22.8905 20.1601 21.8683 20.3905C20.863 20.6157 20.4067 20.1612 20.6324 19.156C20.8684 18.1345 21.3866 17.1998 22.1279 16.4584L27.8309 10.7551C31.5866 6.99555 34.7966 3.83719 34.9491 3.74901C35.5189 3.38027 36.2171 3.32416 36.7547 3.58869Z" fill="white"/>
    <path d="M7.3028 5.21597C5.95459 5.41637 4.486 6.03361 3.34645 6.88332C1.84576 8.02161 0.74633 9.66492 0.216676 11.5808C0.0728565 12.1129 0 12.6616 0 13.2128V32.9551C0 33.5063 0.0728564 34.055 0.216676 34.5871C1.06733 37.6653 3.33842 39.9258 6.43609 40.7836C6.95803 40.9272 7.4969 41 8.03824 41H26.1562C26.6924 41 27.2261 40.9272 27.7426 40.7836C31.2576 39.8136 33.7454 36.9438 34.1386 33.4007C34.1948 32.9358 34.2269 30.6912 34.2269 27.7894C34.2269 22.2743 34.2349 22.3705 33.633 21.8174C33.0151 21.2482 32.2687 21.1841 31.5465 21.649C31.2656 21.8254 31.1212 21.9937 30.9767 22.3064C30.8447 22.5807 30.7761 22.8813 30.7761 23.1858V27.8535C30.7761 33.6252 30.7761 33.6252 30.2063 34.7875C29.7569 35.7013 28.8501 36.6152 27.9673 37.048C26.7957 37.6252 27.3574 37.6012 16.8366 37.5771L7.95971 37.5545C7.57853 37.5536 7.20078 37.4824 6.84537 37.3446C5.32061 36.7514 4.25328 35.6853 3.65942 34.1622C3.52152 33.8073 3.45077 33.4298 3.45077 33.049V13.1189C3.45077 12.7381 3.52152 12.3606 3.65942 12.0056C4.25328 10.4826 5.32061 9.41642 6.84537 8.82323C7.20085 8.68543 7.57846 8.61358 7.9597 8.61119L19.698 8.53754C19.9996 8.53565 20.2949 8.4515 20.5522 8.29416C21.3627 7.79716 21.6275 6.69895 21.1219 5.93742C21.0016 5.76106 20.7528 5.51256 20.5682 5.39232C20.3484 5.24595 20.0903 5.16769 19.8262 5.16735L14.0117 5.15985C10.585 5.15184 7.56763 5.17588 7.3028 5.21597Z" fill="white"/>
</svg>
