<svg width="12" height="12" viewBox="0 0 12 12" fill="none" xmlns="http://www.w3.org/2000/svg">
    <path d="M10.2548 0.0250651C10.0622 0.0626041 9.8579 0.142374 9.70758 0.236222C9.52672 0.353531 5.31768 4.53678 5.24956 4.67286C5.19554 4.77375 4.7798 6.60377 4.7798 6.7375C4.7798 6.99558 5.00763 7.22316 5.26835 7.22551C5.35526 7.22551 6.96653 6.88062 7.25778 6.7985C7.33764 6.77504 7.65943 6.46535 9.49618 4.63532C11.0816 3.05634 11.6712 2.45337 11.7557 2.32667C11.8238 2.22813 11.899 2.07563 11.9342 1.96301C11.9906 1.79878 12 1.73074 12 1.48909C12 1.16766 11.9671 1.02689 11.8309 0.761768C11.5537 0.224491 10.8679 -0.0945904 10.2548 0.0250651ZM10.7575 1.05035C10.9219 1.13012 11.0065 1.27324 11.0065 1.46562C11.0065 1.72605 11.0793 1.64863 8.88315 3.83996L7.19047 5.53272C6.9736 5.7496 6.69967 5.90052 6.40047 5.96795C6.10625 6.03387 5.9727 5.90083 6.03876 5.60664C6.10783 5.30766 6.25949 5.03409 6.47647 4.8171L8.14563 3.14784C9.24486 2.04748 10.1844 1.12308 10.229 1.09727C10.3958 0.989348 10.6001 0.972924 10.7575 1.05035Z" fill="#5B5B5B"/>
    <path d="M2.1374 1.52662C1.74281 1.58528 1.31298 1.76594 0.979448 2.01463C0.540223 2.34779 0.218438 2.82876 0.0634175 3.3895C0.0213239 3.54523 0 3.70584 0 3.86715V9.64539C0 9.80671 0.0213238 9.96732 0.0634175 10.1231C0.31239 11.024 0.977099 11.6856 1.88373 11.9367C2.0365 11.9787 2.19422 12 2.35266 12H7.65548C7.8124 12 7.9686 11.9787 8.11979 11.9367C9.14856 11.6528 9.87669 10.8128 9.99178 9.77582C10.0082 9.63974 10.0176 8.9828 10.0176 8.13349C10.0176 6.51931 10.02 6.54746 9.84381 6.38558C9.66295 6.219 9.44451 6.20023 9.23312 6.33631C9.15091 6.38792 9.10863 6.43719 9.06635 6.52869C9.0277 6.609 9.00763 6.69697 9.00763 6.78609V8.15225C9.00763 9.84151 9.00763 9.84151 8.84087 10.1817C8.70934 10.4492 8.44392 10.7166 8.18556 10.8433C7.84263 11.0123 8.00705 11.0052 4.92777 10.9982L2.32967 10.9916C2.21811 10.9913 2.10755 10.9705 2.00352 10.9301C1.55725 10.7565 1.24486 10.4445 1.07105 9.9987C1.03069 9.89481 1.00998 9.78432 1.00998 9.67287V3.83968C1.00998 3.72822 1.03069 3.61774 1.07105 3.51384C1.24486 3.06807 1.55725 2.75603 2.00352 2.58241C2.10756 2.54208 2.21809 2.52105 2.32967 2.52035L5.76527 2.49879C5.85353 2.49824 5.93997 2.47361 6.01527 2.42756C6.2525 2.2821 6.33001 1.96067 6.18203 1.73778C6.1468 1.68616 6.07399 1.61343 6.01996 1.57824C5.95563 1.5354 5.88009 1.51249 5.80279 1.51239L4.101 1.5102C3.09806 1.50785 2.21492 1.51489 2.1374 1.52662Z" fill="#5B5B5B"/>
</svg>
