<svg width="21" height="21" viewBox="0 0 21 21" fill="none" xmlns="http://www.w3.org/2000/svg">
    <path d="M9.90745 0.00737504C7.63942 0.166609 5.66484 0.925064 3.8915 2.32465C3.5142 2.62216 2.61285 3.52309 2.3152 3.90022C1.06589 5.47999 0.336432 7.19385 0.0723172 9.15913C-0.0241057 9.86311 -0.0241057 11.137 0.0723172 11.841C0.298701 13.5339 0.877239 15.0466 1.80793 16.4085C2.23554 17.0328 2.50385 17.3513 3.06981 17.9212C3.63577 18.4869 3.95858 18.7551 4.58323 19.1825C7.71907 21.3321 11.8569 21.5961 15.2652 19.8613C16.2714 19.3459 17.0721 18.7634 17.898 17.9379C18.9544 16.882 19.6881 15.7883 20.2205 14.4725C21.5495 11.1663 21.1638 7.48717 19.1808 4.59163C17.4704 2.09418 14.8376 0.472505 11.8778 0.0911823C11.3748 0.0241365 10.3015 -0.0177671 9.90745 0.00737504ZM11.5005 1.80504C14.4896 2.16541 17.0386 3.97146 18.3591 6.66586C20.0067 10.0349 19.3401 14.0241 16.678 16.6808C15.9569 17.4016 15.261 17.9002 14.3303 18.3612C11.01 20.0038 6.97284 19.3375 4.3275 16.7018C4.08435 16.4587 3.7825 16.1277 3.65254 15.9643C2.41162 14.3929 1.73247 12.4653 1.73247 10.5C1.73247 7.55841 3.22912 4.80115 5.70258 3.17529C7.40465 2.06065 9.50499 1.562 11.5005 1.80504Z" fill="white"/>
    <path d="M8.69169 6.13788C8.33953 6.2133 8.10476 6.43539 8.02092 6.77062C7.98738 6.90471 7.97899 8.14925 7.98738 11.0448L7.99996 15.1304L8.09219 15.298C8.20538 15.5117 8.33115 15.629 8.56592 15.7338C8.92226 15.8972 9.27442 15.8218 9.57626 15.5285C9.70203 15.407 9.79007 15.2812 9.81941 15.1723C9.84876 15.0675 9.86553 14.4725 9.86553 13.5464V12.0924H10.7627C11.706 12.0924 12.0958 12.0547 12.6241 11.9206C13.6051 11.6692 14.2465 11.0448 14.5064 10.081C14.5651 9.87149 14.5819 9.6494 14.5819 9.11722C14.5819 8.52219 14.5651 8.37972 14.4854 8.09059C14.3471 7.61288 14.1626 7.29023 13.844 6.97176C13.4206 6.55272 12.8672 6.31387 11.9952 6.18397C11.6305 6.1295 8.9013 6.08759 8.69169 6.13788ZM11.8904 7.81821C12.4689 8.01516 12.7163 8.38391 12.7163 9.05018C12.7163 9.68292 12.5151 10.1145 12.1336 10.3073C11.8359 10.4581 11.5215 10.5 10.6537 10.5H9.86553V7.68412L10.7375 7.70088C11.5089 7.71764 11.6389 7.73022 11.8904 7.81821Z" fill="white"/>
</svg>
