<svg width="38" height="43" viewBox="0 0 38 43" fill="none" xmlns="http://www.w3.org/2000/svg">
    <path d="M8.8999 0.0604432C6.56527 0.371417 4.81016 1.80021 4.13957 3.935C3.82498 4.93516 3.76702 5.98575 3.76702 10.3478V14.4072L3.27857 14.5921C1.76355 15.1637 0.505164 16.6009 0.116058 18.2062C0.0249913 18.576 0.000154798 20.1224 0.000154798 26.1066C0.000154798 34.3432 -0.0246817 33.9397 0.554837 35.1836C1.28337 36.7217 2.61627 37.6126 4.70253 37.9152L5.00885 37.9656V39.7894C5.00885 41.7645 5.0668 42.0587 5.51386 42.4957C5.95264 42.916 6.28379 43 7.61668 43C9.04064 43 9.35524 42.9075 9.78574 42.3696C10.1583 41.9074 10.2245 41.5208 10.2245 39.6465V37.9572H27.7756V39.6465C27.7756 41.5208 27.8419 41.9074 28.2144 42.3696C28.6449 42.9075 28.9595 43 30.3835 43C31.7164 43 32.0475 42.916 32.4863 42.4957C32.9334 42.0587 32.9913 41.7645 32.9913 39.7894V37.9656L33.3887 37.9152C35.7978 37.579 37.3377 36.2342 37.851 34.0322C37.9917 33.4271 38 32.8387 38 26.0225C38 19.1979 37.9917 18.6348 37.851 18.181C37.2963 16.3655 36.0793 15.046 34.4649 14.5165L34.1586 14.4157L34.1338 9.65019L34.1007 4.88473L33.8771 4.12831C33.5377 3.0357 33.2066 2.45578 32.4863 1.72457C31.973 1.19508 31.7164 1.01017 31.0789 0.699199C29.5639 -0.040413 30.4994 0.0184197 19.3312 0.00161035C13.892 -0.00679434 9.19794 0.0184197 8.8999 0.0604432ZM29.4811 1.86745C31.0458 2.33811 31.9565 3.31306 32.2876 4.90154C32.387 5.3554 32.4118 6.35556 32.4118 9.8435V14.2139L31.8571 14.3232C30.4249 14.5921 29.0257 15.6764 28.3634 17.0295C27.9412 17.9036 27.7756 18.66 27.7756 19.7358V20.5595H10.1666L10.1252 19.3996C10.0921 18.4499 10.0424 18.1473 9.8768 17.6935C9.23105 15.9201 7.82365 14.6762 6.0437 14.3064L5.54697 14.1971V9.75105C5.54697 4.90154 5.55525 4.84271 6.02715 3.84255C6.58183 2.69111 7.69947 1.93469 9.16482 1.74138C9.45458 1.69936 14.0079 1.67414 19.2898 1.68255C28.736 1.69095 28.9016 1.69936 29.4811 1.86745ZM6.06026 16.0882C7.26069 16.4748 8.17964 17.4918 8.40317 18.7104C8.45284 18.9794 8.48596 21.1982 8.48596 24.2743C8.48596 29.9559 8.4694 29.7878 9.02408 30.0232C9.4463 30.1997 28.5539 30.1997 28.9761 30.0232C29.5308 29.7878 29.5142 29.9559 29.5142 24.2743C29.5142 21.1982 29.5473 18.9794 29.597 18.7104C29.8205 17.4918 30.7395 16.4748 31.9399 16.0882C33.7198 15.5251 35.6323 16.6009 36.1704 18.4499C36.2863 18.8533 36.3028 19.719 36.3028 25.5939C36.3028 32.2504 36.2614 33.3682 36.0131 34.0994C35.6902 35.0408 35.0113 35.6963 33.9848 36.0493L33.4466 36.2342L19.5796 36.2594C10.299 36.2762 5.44763 36.251 4.90122 36.1922C3.52694 36.0493 2.59971 35.4862 2.11126 34.5197C1.70559 33.7044 1.69732 33.6204 1.69732 26.0141C1.69732 19.7526 1.71387 18.8533 1.82978 18.4499C2.3679 16.6009 4.28031 15.5251 6.06026 16.0882ZM27.7756 28.3758H10.1417V22.3245H27.7756V28.3758ZM8.48596 41.235H6.7474V37.9572H8.48596V41.235ZM31.2528 41.235H29.4314V37.9572H31.2528V41.235Z" fill="white"/>
</svg>
