<svg width="23" height="22" viewBox="0 0 23 22" fill="none" xmlns="http://www.w3.org/2000/svg">
    <path d="M10.4695 0.0266939C8.24524 0.233289 6.19209 1.01663 4.39108 2.34228C3.51309 2.98789 2.37395 4.20163 1.71659 5.19157C1.43293 5.61767 0.879117 6.70229 0.681006 7.21878C0.460383 7.79552 0.221749 8.68216 0.104684 9.3665C-0.0348945 10.2058 -0.0348945 11.7983 0.104684 12.6376C0.307297 13.8255 0.626976 14.781 1.17178 15.8441C1.76611 17.0019 2.38296 17.824 3.37351 18.7752C4.36857 19.7221 5.22855 20.3117 6.43973 20.8799C7.55185 21.4007 8.55141 21.7062 9.79411 21.8999C10.6721 22.0334 12.338 22.0334 13.216 21.8999C14.4587 21.7062 15.4583 21.4007 16.5704 20.8799C17.7816 20.3117 18.6416 19.7221 19.6366 18.7752C20.6272 17.824 21.244 17.0019 21.8383 15.8441C22.2346 15.0737 22.4327 14.5701 22.6488 13.7954C22.9325 12.7624 23 12.1986 23 11.002C23 9.80552 22.9325 9.24169 22.6488 8.20871C22.4327 7.43398 22.2346 6.93041 21.8383 6.15998C21.244 5.00219 20.6272 4.18011 19.6366 3.22891C18.6416 2.28202 17.7816 1.69237 16.5704 1.12423C15.4628 0.603438 14.4362 0.293546 13.2385 0.112775C12.5767 0.0137817 11.0998 -0.0335629 10.4695 0.0266939ZM12.7658 1.63641C17.2368 2.21316 20.6992 5.52298 21.3025 9.79691C21.4331 10.7395 21.3656 12.1039 21.145 13.0551C20.2355 16.9244 16.9036 19.834 12.7658 20.3677C12.1579 20.4452 10.8522 20.4452 10.2444 20.3677C5.77336 19.7909 2.31092 16.4811 1.70758 12.2072C1.62654 11.6261 1.62654 10.378 1.70758 9.79691C2.30642 5.5402 5.75535 2.23037 10.1993 1.64072C10.7802 1.56324 12.1759 1.56324 12.7658 1.63641Z" fill="#5B5B5B"/>
    <path d="M11.1899 5.81996C10.9873 5.90604 10.8837 5.99643 10.7802 6.19011C10.6991 6.34075 10.6946 6.46987 10.6946 8.29049V10.2273H8.65947C6.62884 10.2273 6.61983 10.2273 6.43973 10.3263C5.87691 10.6319 5.87691 11.3722 6.43973 11.6778C6.61983 11.7768 6.62884 11.7768 8.65947 11.7768H10.6946V13.7222C10.6946 15.6633 10.6946 15.672 10.7982 15.8441C11.1178 16.3821 11.8923 16.3821 12.212 15.8441C12.3155 15.672 12.3155 15.6633 12.3155 13.7222V11.7768H14.3552C16.3813 11.7768 16.3903 11.7768 16.5704 11.6778C17.1332 11.3722 17.1332 10.6319 16.5704 10.3263C16.3903 10.2273 16.3813 10.2273 14.3552 10.2273H12.3155V8.29049C12.3155 6.46987 12.311 6.34075 12.23 6.19011C12.1264 5.99212 12.0229 5.90174 11.8067 5.81566C11.6041 5.73388 11.3925 5.73388 11.1899 5.81996Z" fill="#5B5B5B"/>
</svg>
