<svg width="181" height="181" viewBox="0 0 181 181" fill="none" xmlns="http://www.w3.org/2000/svg">
<path d="M25.0996 0.671683C21.918 1.37871 21.2463 1.59082 18.6656 2.82813C16.8273 3.67657 16.0142 5.01993 16.4385 6.61075C16.5799 7.24707 19.408 10.358 24.3219 15.2719L31.9578 22.9785H29.8367C21.7412 22.9785 14.5648 25.5592 8.66112 30.6145C5.26737 33.4779 1.90897 38.4272 0.565613 42.5279C0.0353394 44.1188 0.0353394 44.3309 0.565613 45.4621C0.989832 46.3459 1.48475 46.7348 2.43925 47.0176C3.14628 47.2297 8.13085 47.3711 13.9285 47.3711H24.1451L21.8826 49.7397C20.6099 51.083 19.0898 52.8506 18.4889 53.7344C13.0447 61.7592 11.8074 72.0111 15.2012 81.0611C16.2971 83.96 17.4283 85.1973 19.0191 85.1973C20.1857 85.1973 20.8221 84.667 27.8924 77.7027C32.0992 73.5666 38.1797 67.5922 41.3967 64.4106L47.265 58.6129L46.8055 62.1127C43.1996 88.2022 33.584 112.771 18.6303 134.159C17.2869 136.104 16.0496 137.8 15.9435 137.942C15.8021 138.083 14.4234 137.906 12.8326 137.518C8.48436 136.492 1.97968 135.396 1.69686 135.679C1.59081 135.821 1.3787 137.164 1.23729 138.649C0.989832 141.3 0.989832 141.371 1.80292 141.548C2.26249 141.618 4.59569 142.043 6.9996 142.467C9.4035 142.891 11.3125 143.421 11.3125 143.633C11.3125 143.846 10.959 144.376 10.5348 144.835C10.1105 145.295 9.82772 145.684 9.93378 145.755C10.0045 145.825 11.065 146.674 12.267 147.699L14.4234 149.572L16.5092 146.992C36.7656 122.034 49.5275 91.4899 53.2041 59.3906C53.4869 56.7746 53.7344 54.0525 53.7344 53.3809C53.7344 52.391 54.0525 51.8254 55.5726 50.3053L57.4109 48.4316L58.7189 49.7043C59.8148 50.7648 60.0269 51.1891 59.8855 52.1082C59.8148 52.7092 59.4967 55.502 59.1785 58.3301C55.6433 91.2777 43.6238 124.402 24.64 153.709L21.8119 158.057L22.6603 158.658C23.1199 158.976 24.2158 159.754 25.0642 160.355L26.6904 161.451L28.2812 159.117C29.165 157.845 30.6498 155.547 31.6043 154.027C32.5234 152.542 33.4426 151.305 33.6193 151.305C34.2557 151.305 39.6998 154.204 43.4471 156.501C51.4012 161.38 57.517 166.364 64.7287 173.859L70.1728 179.515L72.2939 177.748C73.4605 176.758 74.4504 175.839 74.5211 175.662C74.7332 175.167 61.441 162.087 57.9766 159.4L54.6535 156.784L181 156.607V150.598H45.6035L41.1846 148.264C38.7453 146.992 36.7656 145.861 36.7656 145.719C36.7656 145.613 38.109 143.032 39.7351 140.028C52.7092 115.812 61.4764 88.6264 64.8701 61.8652C65.2236 59.2492 65.5418 57.0221 65.6478 56.9514C65.7185 56.8453 72.1879 63.1732 80.0006 70.9859C93.5402 84.4902 94.318 85.1973 95.5199 85.1973C97.2875 85.1973 98.348 84.1367 99.4793 81.2379C103.651 70.5617 101.247 58.6482 93.1514 49.9164L90.8182 47.4064L112.701 47.1943L113.62 46.3459C115.034 45.0379 114.822 43.5531 112.771 39.417C110.226 34.2203 106.585 30.2963 101.494 27.2207C97.0754 24.5693 93.1514 23.4734 86.6467 23.0492L82.9701 22.8018L90.6768 14.9184C97.641 7.77735 98.4187 6.89356 98.4187 5.83301C98.4187 4.20684 97.5703 3.39375 94.5654 2.15645C85.6215 -1.59082 74.0615 -0.0706997 66.2135 5.79766C65.0469 6.68145 62.5723 8.9793 60.734 10.9236L57.3756 14.4234L54.3353 11.1357C50.5174 7.03496 47.7246 4.91387 43.6592 3.00489C39.5937 1.0959 36.6242 0.388871 31.8871 0.176761C28.9883 0.035355 27.3974 0.14141 25.0996 0.671683ZM37.5433 7.03496C43.1289 8.66114 49.174 13.3629 53.2394 19.2313L53.9818 20.2918L53.2748 22.2715C52.9213 23.332 52.3557 25.4885 52.1082 27.0086C51.8254 28.5641 51.5426 29.8721 51.4719 29.9428C51.4012 30.0488 50.5527 29.5186 49.5982 28.7762C48.6791 28.0691 46.6287 26.8672 45.0732 26.0895C42.4219 24.8168 41.6441 24.1451 33.5133 15.9789C28.6701 11.1711 24.7461 7.14102 24.7461 6.99961C24.7461 6.54004 29.2004 6.04512 32.1699 6.18653C33.8314 6.25723 36.2353 6.6461 37.5433 7.03496ZM87.3184 6.39864C88.5557 6.57539 89.6869 6.82285 89.7576 6.92891C89.8637 7.03496 85.975 11.065 81.1318 15.9436C73.107 23.9684 72.0465 24.9229 69.5365 26.1955C65.2943 28.352 61.441 31.5336 58.7896 35.1041L58.0473 36.0586L57.7998 33.9375C57.2695 29.2357 58.7189 23.5088 61.5117 19.3373C62.4662 17.8879 64.7641 15.2719 66.6377 13.5043C69.3244 10.9236 70.6324 9.96914 73.2484 8.66114C78.0562 6.29258 82.3691 5.58555 87.3184 6.39864ZM34.7152 29.3418C40.3715 29.9781 44.8258 32.1346 48.8912 36.1647C50.2346 37.508 51.2598 38.6393 51.1891 38.7453C51.083 38.816 49.775 38.71 48.2549 38.5332C44.6137 38.0736 40.018 38.6039 35.9525 39.9473L32.8416 41.0078H20.4685C13.681 41.0078 8.13085 40.8664 8.13085 40.725C8.13085 40.124 10.3933 37.2959 12.2316 35.5283C17.7465 30.2609 25.0996 28.2459 34.7152 29.3418ZM92.2322 29.8721C95.4846 30.6498 99.7974 33.0184 102.449 35.493C104.429 37.3666 106.762 40.2301 106.762 40.7957C106.762 40.9018 101.212 41.0078 94.424 41.0078H82.051L78.94 39.9826C74.8392 38.6039 70.2435 38.0736 66.6377 38.5332C65.1176 38.71 63.8096 38.816 63.7389 38.7453C63.4914 38.4979 66.8851 35.0334 68.5467 33.7961C71.8344 31.3922 75.4402 29.9428 79.6824 29.3418C82.5812 28.9176 89.4394 29.2357 92.2322 29.8721ZM50.6588 45.0379L52.0375 45.4268L36.0939 61.0875L20.1857 76.7482L19.7969 75.2635C19.2312 73.1424 19.3373 67.3801 19.9736 64.8701C21.2816 59.9563 23.7209 56.1736 28.5641 51.5779C34.1849 46.2045 40.018 43.942 47.0176 44.4723C48.2902 44.5783 49.9164 44.8258 50.6588 45.0379ZM75.1221 45.1086C79.8238 46.2398 85.0912 49.7397 89.3334 54.6535C93.1514 59.1078 95.4492 64.9762 95.4492 70.385C95.4492 73.1777 94.8836 76.7129 94.4594 76.7129C94.318 76.7129 87.1416 69.6426 78.5158 61.0168C61.1935 43.6945 62.2187 45.1086 66.5316 44.5783C69.2891 44.2602 72.3293 44.4369 75.1221 45.1086Z" fill="#CCCCCC"/>
<path d="M126.947 85.0205C117.261 87.1416 109.696 93.0807 105.524 101.848C101.954 109.448 101.777 118.534 105.065 126.346C107.964 133.169 113.408 138.755 120.301 141.937C124.72 143.987 126.841 144.411 132.745 144.411C138.932 144.411 140.911 143.987 145.861 141.583C156.395 136.492 162.759 126.276 162.759 114.539C162.759 103.474 156.996 93.6817 147.204 88.1668C141.406 84.9145 133.275 83.6772 126.947 85.0205ZM139.815 91.5606C143.704 92.7625 146.603 94.5654 149.749 97.7117C152.153 100.116 152.895 101.141 154.239 103.934C156.254 108.211 156.749 110.332 156.749 114.716C156.713 120.372 155.052 125.18 151.729 129.351C144.588 138.225 132.745 141.088 122.599 136.351C117.544 134.018 113.691 130.164 111.181 124.968C109.272 120.973 108.741 118.781 108.777 114.539C108.812 108.353 110.969 102.767 115.069 98.3481C118.675 94.4594 122.599 92.1615 127.761 90.9949C130.836 90.2879 136.634 90.5707 139.815 91.5606Z" fill="#CCCCCC"/>
<path d="M36.4121 169.016L42.2451 168.804L42.4572 162.971H36.4121V169.016Z" fill="#CCCCCC"/>
<path d="M102.696 168.804H162.794L163.006 162.971H102.484L102.696 168.804Z" fill="#CCCCCC"/>
<path d="M18.206 174.813H24.2158L24.4279 168.98H17.9939L18.206 174.813Z" fill="#CCCCCC"/>
<path d="M115.6 181H149.891V174.99H115.6V181Z" fill="#CCCCCC"/>
</svg>
