<svg width="19" height="21" viewBox="0 0 19 21" fill="#000000" xmlns="http://www.w3.org/2000/svg">
    <path d="M4.41254 0.0295188C3.25504 0.18139 2.38486 0.879174 2.05238 1.92175C1.89641 2.4102 1.86768 2.92327 1.86768 5.05357V7.0361L1.6255 7.1264C0.87436 7.40551 0.250458 8.1074 0.0575414 8.89138C0.0123906 9.07199 7.67482e-05 9.82724 7.67482e-05 12.7497C7.67482e-05 16.7722 -0.0122371 16.5752 0.275086 17.1827C0.636292 17.9339 1.29713 18.3689 2.3315 18.5167L2.48337 18.5413V19.432C2.48337 20.3966 2.5121 20.5403 2.73375 20.7537C2.9513 20.959 3.11548 21 3.77632 21C4.48232 21 4.63829 20.9548 4.85173 20.6922C5.03644 20.4664 5.06928 20.2776 5.06928 19.3623V18.5372H13.7711V19.3623C13.7711 20.2776 13.8039 20.4664 13.9886 20.6922C14.202 20.9548 14.358 21 15.064 21C15.7249 21 15.889 20.959 16.1066 20.7537C16.3282 20.5403 16.357 20.3966 16.357 19.432V18.5413L16.554 18.5167C17.7484 18.3525 18.5119 17.6958 18.7664 16.6204C18.8362 16.3248 18.8403 16.0375 18.8403 12.7087C18.8403 9.37573 18.8362 9.10072 18.7664 8.87907C18.4914 7.99247 17.888 7.34805 17.0876 7.08946L16.9357 7.0402L16.9234 4.71288L16.907 2.38557L16.7962 2.01615C16.6279 1.48255 16.4637 1.19933 16.1066 0.842233C15.8521 0.583642 15.7249 0.49334 15.4088 0.34147C14.6577 -0.0197366 15.1215 0.00899568 9.58435 0.000786451C6.88762 -0.00331816 4.5603 0.00899568 4.41254 0.0295188ZM14.6166 0.912011C15.3924 1.14187 15.8439 1.618 16.0081 2.39378C16.0573 2.61543 16.0696 3.10388 16.0696 4.80729V6.94169L15.7946 6.99505C15.0845 7.1264 14.3909 7.65589 14.0625 8.31674C13.8532 8.74362 13.7711 9.11303 13.7711 9.63842V10.0407H5.04054L5.02002 9.47424C5.0036 9.01042 4.97898 8.86265 4.89688 8.641C4.57672 7.77493 3.87894 7.16745 2.99645 6.98684L2.75017 6.93348V4.76214C2.75017 2.39378 2.75427 2.36505 2.98824 1.8766C3.26325 1.31426 3.81737 0.944848 4.54389 0.850442C4.68755 0.829919 6.94509 0.817605 9.56383 0.82171C14.2472 0.825814 14.3293 0.829919 14.6166 0.912011ZM3.00466 7.85702C3.59982 8.04583 4.05544 8.54249 4.16626 9.13766C4.19089 9.26901 4.20731 10.3526 4.20731 11.8549C4.20731 14.6296 4.1991 14.5475 4.47411 14.6625C4.68344 14.7487 14.1569 14.7487 14.3662 14.6625C14.6412 14.5475 14.633 14.6296 14.633 11.8549C14.633 10.3526 14.6494 9.26901 14.6741 9.13766C14.7849 8.54249 15.2405 8.04583 15.8357 7.85702C16.7182 7.58201 17.6663 8.1074 17.9331 9.01042C17.9906 9.20744 17.9988 9.63021 17.9988 12.4993C17.9988 15.7502 17.9783 16.2961 17.8552 16.6532C17.6951 17.1129 17.3585 17.4331 16.8495 17.6055L16.5827 17.6958L9.70749 17.7081C5.10622 17.7163 2.70091 17.704 2.43001 17.6753C1.74864 17.6055 1.28893 17.3305 1.04675 16.8584C0.845628 16.4603 0.841523 16.4192 0.841523 12.7046C0.841523 9.64663 0.849732 9.20744 0.907197 9.01042C1.174 8.1074 2.12216 7.58201 3.00466 7.85702ZM13.7711 13.858H5.02823V10.9026H13.7711V13.858ZM4.20731 20.138H3.34534V18.5372H4.20731V20.138ZM15.495 20.138H14.592V18.5372H15.495V20.138Z" fill="#5B5B5B"/>
</svg>
