<svg width="41" height="41" viewBox="0 0 41 41" fill="none" xmlns="http://www.w3.org/2000/svg">
    <path d="M7.73835 0.122905C7.305 0.26441 6.56212 1.025 6.42946 1.47604C6.36756 1.67945 6.32334 2.05975 6.32334 2.33391V2.82033L4.49267 2.85571L2.65315 2.88224L2.06061 3.16525C1.23814 3.55439 0.725194 4.04965 0.327222 4.85446L0 5.52661V38.3556L0.327222 39.0278C0.725194 39.8326 1.23814 40.3279 2.06061 40.717L2.65315 41H38.2938L38.8863 40.717C39.7088 40.3279 40.2217 39.8326 40.6197 39.0278L40.9469 38.3556L41 24.5059L40.7789 24.2848C40.4871 23.9929 40.0802 23.9929 39.7972 24.2848C39.6115 24.4617 39.5761 24.5855 39.5761 24.9923V25.4787H31.0861V18.4035H35.3311C39.0986 18.4035 39.5761 18.4212 39.5761 18.5362C39.5761 18.6158 39.6734 18.775 39.7972 18.8899C40.0802 19.1818 40.4871 19.1818 40.7789 18.8899L41 18.6688L40.9469 5.53545L40.6639 4.9429C40.2748 4.12041 39.7796 3.60745 38.9748 3.20947L38.3026 2.88224L36.4631 2.85571L34.6236 2.82033V2.33391C34.6236 1.62639 34.4644 1.20188 34.0311 0.715455C33.1909 -0.222012 31.9439 -0.2397 31.0418 0.671235C30.5377 1.1665 30.3786 1.57333 30.3786 2.34276V2.83802H28.9635V2.34276C28.9635 1.62639 28.8044 1.20188 28.371 0.715455C27.5308 -0.222012 26.2839 -0.2397 25.3818 0.671235C24.8777 1.1665 24.7185 1.57333 24.7185 2.34276V2.83802H16.2284V2.34276C16.2284 1.62639 16.0692 1.20188 15.6359 0.715455C14.7957 -0.222012 13.5487 -0.2397 12.6467 0.671235C12.1426 1.1665 11.9834 1.57333 11.9834 2.34276V2.83802H10.5684V2.34276C10.5684 1.62639 10.4092 1.20188 9.97584 0.715455C9.40099 0.0786852 8.57852 -0.142416 7.73835 0.122905ZM8.93227 1.64408C9.15337 1.85633 9.15337 1.87402 9.15337 3.54554C9.15337 5.21706 9.15337 5.23475 8.93227 5.44701C8.79961 5.58851 8.61389 5.66811 8.44586 5.66811C8.27783 5.66811 8.0921 5.58851 7.95945 5.44701C7.73835 5.23475 7.73835 5.21706 7.73835 3.54554C7.73835 1.87402 7.73835 1.85633 7.95945 1.64408C8.0921 1.50257 8.27783 1.42298 8.44586 1.42298C8.61389 1.42298 8.79961 1.50257 8.93227 1.64408ZM14.5923 1.64408C14.8134 1.85633 14.8134 1.87402 14.8134 3.54554C14.8134 5.21706 14.8134 5.23475 14.5923 5.44701C14.4597 5.58851 14.2739 5.66811 14.1059 5.66811C13.9379 5.66811 13.7522 5.58851 13.6195 5.44701C13.3984 5.23475 13.3984 5.21706 13.3984 3.54554C13.3984 1.87402 13.3984 1.85633 13.6195 1.64408C13.7522 1.50257 13.9379 1.42298 14.1059 1.42298C14.2739 1.42298 14.4597 1.50257 14.5923 1.64408ZM27.3274 1.64408C27.5485 1.85633 27.5485 1.87402 27.5485 3.54554C27.5485 5.21706 27.5485 5.23475 27.3274 5.44701C27.1948 5.58851 27.0091 5.66811 26.841 5.66811C26.673 5.66811 26.4873 5.58851 26.3546 5.44701C26.1335 5.23475 26.1335 5.21706 26.1335 3.54554C26.1335 1.87402 26.1335 1.85633 26.3546 1.64408C26.4873 1.50257 26.673 1.42298 26.841 1.42298C27.0091 1.42298 27.1948 1.50257 27.3274 1.64408ZM32.9875 1.64408C33.2086 1.85633 33.2086 1.87402 33.2086 3.54554C33.2086 5.21706 33.2086 5.23475 32.9875 5.44701C32.8548 5.58851 32.6691 5.66811 32.5011 5.66811C32.333 5.66811 32.1473 5.58851 32.0147 5.44701C31.7936 5.23475 31.7936 5.21706 31.7936 3.54554C31.7936 1.87402 31.7936 1.85633 32.0147 1.64408C32.1473 1.50257 32.333 1.42298 32.5011 1.42298C32.6691 1.42298 32.8548 1.50257 32.9875 1.64408ZM6.32334 4.74833C6.32334 5.51776 6.48253 5.92459 6.98663 6.41985C7.8887 7.33079 9.13568 7.3131 9.97584 6.37563C10.4092 5.88921 10.5684 5.4647 10.5684 4.74833V4.25307H11.9834V4.74833C11.9834 5.51776 12.1426 5.92459 12.6467 6.41985C13.5487 7.33079 14.7957 7.3131 15.6359 6.37563C16.0692 5.88921 16.2284 5.4647 16.2284 4.74833V4.25307H24.7185V4.74833C24.7185 5.51776 24.8777 5.92459 25.3818 6.41985C26.2839 7.33079 27.5308 7.3131 28.371 6.37563C28.8044 5.88921 28.9635 5.4647 28.9635 4.74833V4.25307H30.3786V4.74833C30.3786 5.51776 30.5377 5.92459 31.0418 6.41985C31.9439 7.33079 33.1909 7.3131 34.0311 6.37563C34.4644 5.88921 34.6236 5.4647 34.6236 4.74833V4.25307H36.1801C38.0727 4.25307 38.3115 4.31497 38.9129 4.91637C39.4965 5.49123 39.5761 5.79193 39.5761 7.29541V8.4982H1.37079V7.29541C1.37079 6.60558 1.41501 5.93343 1.47692 5.72117C1.60958 5.27013 2.35246 4.50954 2.78581 4.36804C2.96268 4.31497 3.80285 4.27075 4.71376 4.26191L6.32334 4.25307V4.74833ZM9.86087 16.9885H1.37079V9.91324H9.86087V16.9885ZM19.766 16.9885H11.2759V9.91324H19.766V16.9885ZM29.6711 16.9885H21.181V9.91324H29.6711V16.9885ZM39.5761 16.9885H31.0861V9.91324H39.5761V16.9885ZM9.86087 25.4787H1.37079V18.4035H9.86087V25.4787ZM19.766 25.4787H11.2759V18.4035H19.766V25.4787ZM29.6711 25.4787H21.181V18.4035H29.6711V25.4787ZM9.86087 33.969H1.37079V26.8938H9.86087V33.969ZM19.766 33.969H11.2759V26.8938H19.766V33.969ZM29.6711 33.969H21.181V26.8938H29.6711V33.969ZM39.5761 33.969H31.0861V26.8938H39.5761V33.969ZM39.5761 36.5868C39.5761 37.2767 39.5319 37.9488 39.47 38.1611C39.3285 38.6475 38.5945 39.3815 38.1081 39.523C37.5774 39.6822 3.3695 39.6822 2.83887 39.523C2.35246 39.3815 1.61842 38.6475 1.47692 38.1611C1.41501 37.9488 1.37079 37.2767 1.37079 36.5868V35.384H39.5761V36.5868Z" fill="white"/>
    <path d="M35.8971 12.5841L34.6236 13.84L34.0576 13.2917C33.6066 12.8583 33.4297 12.7433 33.2086 12.7433C32.8371 12.7433 32.5011 13.0882 32.5011 13.4597C32.5011 13.6985 32.6337 13.8754 33.3589 14.6183C33.8365 15.0958 34.3141 15.5115 34.4202 15.5469C34.5352 15.5734 34.7386 15.5469 34.8801 15.4938C35.0127 15.4319 35.8087 14.6979 36.64 13.8577C37.9843 12.5134 38.1611 12.3011 38.1611 12.0447C38.1611 11.6644 37.8251 11.3283 37.4448 11.3283C37.1972 11.3283 36.9937 11.4875 35.8971 12.5841Z" fill="white"/>
    <path d="M16.0869 21.0744L14.8134 22.3303L14.2474 21.7819C13.7964 21.3486 13.6195 21.2336 13.3984 21.2336C13.027 21.2336 12.6909 21.5785 12.6909 21.9588C12.6909 22.1976 12.8236 22.3745 13.6018 23.1528C14.8842 24.4351 14.7073 24.4794 16.7325 22.4452C18.1741 21.0125 18.351 20.8002 18.351 20.5438C18.351 20.1546 18.0149 19.8186 17.6346 19.8186C17.387 19.8186 17.1836 19.9777 16.0869 21.0744Z" fill="white"/>
    <path d="M25.992 29.5647L24.7185 30.8205L24.1525 30.2722C23.7015 29.8388 23.5246 29.7239 23.3035 29.7239C22.9321 29.7239 22.596 30.0688 22.596 30.4402C22.596 30.679 22.7286 30.8559 23.4538 31.5988C23.9314 32.0764 24.409 32.492 24.5151 32.5274C24.6301 32.554 24.8335 32.5274 24.975 32.4744C25.1076 32.4124 25.9036 31.6784 26.7349 30.8382C28.0792 29.4939 28.256 29.2817 28.256 29.0252C28.256 28.6449 27.92 28.3088 27.5397 28.3088C27.2921 28.3088 27.0887 28.468 25.992 29.5647Z" fill="white"/>
    <path d="M39.7972 20.7472C39.6027 20.9329 39.5761 21.039 39.5761 21.5874C39.5761 22.1357 39.6027 22.2418 39.7972 22.4275C39.9299 22.569 40.1156 22.6486 40.2837 22.6486C40.4517 22.6486 40.6374 22.569 40.7701 22.4275C40.9646 22.2418 40.9912 22.1357 40.9912 21.5874C40.9912 21.039 40.9646 20.9329 40.7701 20.7472C40.6374 20.6057 40.4517 20.5261 40.2837 20.5261C40.1156 20.5261 39.9299 20.6057 39.7972 20.7472Z" fill="white"/>
</svg>
