<svg width="41" height="41" viewBox="0 0 41 41" fill="none" xmlns="http://www.w3.org/2000/svg">
    <path d="M19.3431 0.0143989C14.9151 0.325284 11.0599 1.80608 7.59769 4.53859C6.86105 5.11946 5.10128 6.87841 4.52015 7.61472C2.08103 10.699 0.656844 14.0451 0.141191 17.8821C-0.0470635 19.2565 -0.0470635 21.7436 0.141191 23.1181C0.583179 26.4233 1.7127 29.3767 3.52977 32.0356C4.36463 33.2546 4.88847 33.8763 5.99344 34.989C7.09841 36.0934 7.72865 36.617 8.94821 37.4515C15.0706 41.6485 23.1491 42.1639 29.8035 38.7769C31.7679 37.7706 33.3312 36.6334 34.9437 35.0217C37.0063 32.96 38.4386 30.8247 39.4781 28.2558C42.0728 21.8009 41.3198 14.6178 37.4483 8.96461C34.1088 4.08863 28.9686 0.92251 23.1901 0.178023C22.2079 0.0471236 20.1125 -0.0346882 19.3431 0.0143989ZM22.4534 3.52413C28.2893 4.22771 33.2657 7.7538 35.844 13.0143C39.0607 19.592 37.7593 27.3805 32.5618 32.5673C31.154 33.9745 29.7953 34.9481 27.9783 35.848C21.4958 39.055 13.6136 37.7542 8.44893 32.6082C7.9742 32.1337 7.38489 31.4874 7.13115 31.1684C4.7084 28.1004 3.38244 24.3371 3.38244 20.5001C3.38244 14.7569 6.30447 9.37367 11.1336 6.19937C14.4567 4.02318 18.5574 3.04962 22.4534 3.52413Z" fill="white"/>
    <path d="M16.9695 11.9835C16.2819 12.1307 15.8236 12.5643 15.6599 13.2188C15.5944 13.4806 15.578 15.9104 15.5944 21.5636L15.619 29.5403L15.799 29.8675C16.02 30.2848 16.2656 30.5139 16.7239 30.7184C17.4197 31.0375 18.1072 30.8902 18.6965 30.3175C18.9421 30.0803 19.1139 29.8348 19.1712 29.6221C19.2285 29.4176 19.2613 28.2559 19.2613 26.4478V23.6089H21.0129C22.8545 23.6089 23.6157 23.5353 24.647 23.2735C26.5623 22.7826 27.8146 21.5636 28.322 19.682C28.4366 19.2729 28.4694 18.8393 28.4694 17.8003C28.4694 16.6386 28.4366 16.3604 28.2811 15.7959C28.011 14.8632 27.6509 14.2333 27.0288 13.6115C26.2021 12.7934 25.1217 12.3271 23.4192 12.0735C22.7071 11.9671 17.3787 11.8853 16.9695 11.9835ZM23.2146 15.2641C24.3441 15.6486 24.827 16.3686 24.827 17.6694C24.827 18.9048 24.4342 19.7474 23.6893 20.1238C23.1082 20.4183 22.4943 20.5001 20.8 20.5001H19.2613V15.0023L20.9637 15.0351C22.4698 15.0678 22.7235 15.0923 23.2146 15.2641Z" fill="white"/>
</svg>
