<svg width="472" height="202" viewBox="0 0 472 202" fill="none" xmlns="http://www.w3.org/2000/svg">
    <g clip-path="url(#clip0_3_22)">
        <path d="M194.811 175.076C187.299 175.076 181.186 168.969 181.186 161.454C181.186 153.947 187.299 147.823 194.811 147.823C202.315 147.823 208.426 153.947 208.426 161.454C208.426 168.969 202.315 175.076 194.811 175.076ZM194.811 139.004C182.439 139.004 172.375 149.079 172.375 161.454C172.375 173.82 182.439 183.895 194.811 183.895C207.175 183.895 217.239 173.82 217.239 161.454C217.239 149.079 207.175 139.004 194.811 139.004ZM108.624 -0.00152588C87.0372 -0.00152588 69.4794 17.5667 69.4794 39.1612V75.2283C69.4794 91.96 55.8688 105.579 39.1472 105.579C22.4136 105.579 8.81023 91.96 8.81023 75.2283V57.1948C8.81023 54.7525 6.84142 52.7876 4.40753 52.7876C1.97122 52.7876 0 54.7525 0 57.1948V75.2283C0 96.8252 17.5554 114.393 39.1472 114.393C60.7342 114.393 78.292 96.8252 78.292 75.2283V39.1612C78.292 22.4319 91.9002 8.82238 108.624 8.82238C125.351 8.82238 138.954 22.4319 138.954 39.1612V57.1948C138.954 59.625 140.93 61.6019 143.364 61.6019C145.8 61.6019 147.769 59.625 147.769 57.1948V39.1612C147.769 17.5667 130.209 -0.00152588 108.624 -0.00152588ZM126.659 61.6019C129.095 61.6019 131.064 59.625 131.064 57.1948V39.1612C131.064 26.786 121.001 16.7157 108.634 16.7157C96.2595 16.7157 86.201 26.786 86.201 39.1612V57.1948C86.201 59.625 88.1698 61.6019 90.6061 61.6019C93.04 61.6019 95.016 59.625 95.016 57.1948V39.1612C95.016 31.6512 101.122 25.5396 108.634 25.5396C116.136 25.5396 122.249 31.6512 122.249 39.1612V57.1948C122.249 59.625 124.218 61.6019 126.659 61.6019ZM39.14 97.6738C51.5047 97.6738 61.5704 87.6035 61.5704 75.2283V57.1948C61.5704 54.7525 59.6016 52.7876 57.1653 52.7876C54.7242 52.7876 52.7554 54.7525 52.7554 57.1948V75.2283C52.7554 82.7383 46.6489 88.8499 39.14 88.8499C31.6359 88.8499 25.5222 82.7383 25.5222 75.2283V57.1948C25.5222 54.7525 23.5462 52.7876 21.1147 52.7876C18.676 52.7876 16.6999 54.7525 16.6999 57.1948V75.2283C16.6999 87.6035 26.7657 97.6738 39.14 97.6738ZM194.803 88.8499C187.292 88.8499 181.186 82.7383 181.186 75.2283C181.186 67.7184 187.292 61.6019 194.803 61.6019C202.305 61.6019 208.419 67.7184 208.419 75.2283C208.419 82.7383 202.305 88.8499 194.803 88.8499ZM194.811 114.393C216.398 114.393 233.956 96.8252 233.956 75.2283V22.227C233.956 19.7824 231.982 17.8126 229.553 17.8126C227.109 17.8126 225.143 19.7824 225.143 22.227V75.2283C225.143 91.96 211.537 105.579 194.811 105.579C178.084 105.579 164.479 91.96 164.479 75.2283C164.479 58.4942 178.084 44.8847 194.811 44.8847C199.556 44.8847 204.214 46.0058 208.419 48.1153V57.4359C204.633 54.5283 199.922 52.7876 194.803 52.7876C182.429 52.7876 172.363 62.8483 172.363 75.2283C172.363 87.6035 182.429 97.6738 194.803 97.6738C207.171 97.6738 217.234 87.6035 217.234 75.2283V45.3693V45.2801V22.227C217.234 19.7824 215.265 17.8126 212.829 17.8126C210.388 17.8126 208.419 19.7824 208.419 22.227V38.5199C204.079 36.9094 199.481 36.0608 194.811 36.0608C173.219 36.0608 155.659 53.6266 155.659 75.2283C155.659 96.8252 173.219 114.393 194.811 114.393ZM350.474 104.258C348.04 104.258 346.074 106.228 346.074 108.66C346.074 125.399 332.466 139.004 315.739 139.004H275.279V196.212C275.279 198.647 277.252 200.617 279.684 200.617C282.125 200.617 284.099 198.647 284.099 196.212V147.823H315.739C337.324 147.823 354.889 130.267 354.889 108.66C354.889 106.228 352.91 104.258 350.474 104.258ZM280.992 88.8499C273.486 88.8499 267.377 82.7383 267.377 75.2283C267.377 67.7184 273.486 61.6019 280.992 61.6019C288.499 61.6019 294.613 67.7184 294.613 75.2283C294.613 82.7383 288.499 88.8499 280.992 88.8499ZM280.992 114.393C285.814 114.393 290.557 113.489 295.003 111.78C295.692 113.323 297.23 114.393 299.018 114.393C301.452 114.393 303.428 112.417 303.428 109.982V75.2283C303.428 62.8483 293.367 52.7876 280.992 52.7876C268.628 52.7876 258.557 62.8483 258.557 75.2283C258.557 87.6035 268.628 97.6738 280.992 97.6738C286.116 97.6738 290.832 95.9235 294.613 93.0256V102.337C290.408 104.458 285.749 105.579 280.992 105.579C264.268 105.579 250.66 91.96 250.66 75.2283C250.66 58.4942 264.268 44.8847 280.992 44.8847C297.719 44.8847 311.322 58.4942 311.322 75.2283V109.982C311.322 112.417 313.293 114.393 315.727 114.393C318.168 114.393 320.142 112.417 320.142 109.982V75.2283C320.142 53.6266 302.577 36.0608 280.992 36.0608C259.405 36.0608 241.85 53.6266 241.85 75.2283C241.85 96.8252 259.405 114.393 280.992 114.393ZM194.811 191.798C178.084 191.798 164.479 178.186 164.479 161.454C164.479 144.72 178.084 131.106 194.811 131.106C211.537 131.106 225.143 144.72 225.143 161.454C225.143 178.186 211.537 191.798 194.811 191.798ZM219.511 131.106H315.739C328.102 131.106 338.17 121.04 338.17 108.66C338.17 106.228 336.199 104.258 333.765 104.258C331.328 104.258 329.359 106.228 329.359 108.66C329.359 116.175 323.246 122.287 315.739 122.287H194.811C173.219 122.287 155.659 139.857 155.659 161.454C155.659 183.051 173.219 200.617 194.811 200.617C216.398 200.617 233.956 183.051 233.956 161.454C233.956 156.659 233.047 152.081 231.466 147.823H258.557V196.212C258.557 198.647 260.531 200.617 262.972 200.617C265.401 200.617 267.377 198.647 267.377 196.212V139.004H226.844C224.765 136.048 222.307 133.389 219.511 131.106ZM108.634 147.823C116.136 147.823 122.249 153.947 122.249 161.454C122.249 168.969 116.136 175.076 108.634 175.076C101.122 175.076 95.016 168.969 95.016 161.454C95.016 153.947 101.122 147.823 108.634 147.823ZM108.624 122.287C103.954 122.287 99.344 123.131 95.016 124.739V108.441C95.016 106.006 93.04 104.034 90.6061 104.034C88.1698 104.034 86.201 106.006 86.201 108.441V131.511C86.1937 131.54 86.201 131.559 86.201 131.581V161.454C86.201 173.82 96.2595 183.895 108.634 183.895C121.001 183.895 131.064 173.82 131.064 161.454C131.064 149.079 121.001 139.004 108.634 139.004C103.506 139.004 98.7946 140.757 95.016 143.664V134.332C99.2235 132.225 103.872 131.106 108.624 131.106C125.351 131.106 138.954 144.72 138.954 161.454C138.954 178.186 125.351 191.798 108.624 191.798C91.9002 191.798 78.292 178.186 78.292 161.454V108.441C78.292 106.006 76.3232 104.034 73.8821 104.034C71.4482 104.034 69.4794 106.006 69.4794 108.441V161.454C69.4794 183.051 87.0372 200.617 108.624 200.617C130.209 200.617 147.769 183.051 147.769 161.454C147.769 139.857 130.209 122.287 108.624 122.287Z" fill="#0099CC"/>
    </g>
    <path d="M298.365 195V178.2H301.485V195H298.365ZM313.013 182.04C314.037 182.04 314.949 182.24 315.749 182.64C316.565 183.04 317.205 183.656 317.669 184.488C318.133 185.304 318.365 186.36 318.365 187.656V195H315.365V188.04C315.365 186.904 315.093 186.056 314.549 185.496C314.021 184.936 313.277 184.656 312.317 184.656C311.613 184.656 310.989 184.8 310.445 185.088C309.901 185.376 309.477 185.808 309.173 186.384C308.885 186.944 308.741 187.656 308.741 188.52V195H305.741V182.184H308.597V185.64L308.093 184.584C308.541 183.768 309.189 183.144 310.037 182.712C310.901 182.264 311.893 182.04 313.013 182.04ZM325.345 195L319.849 182.184H322.969L327.697 193.488H326.161L331.057 182.184H333.937L328.441 195H325.345ZM341.484 195.168C340.06 195.168 338.812 194.888 337.74 194.328C336.684 193.752 335.86 192.968 335.268 191.976C334.692 190.984 334.404 189.856 334.404 188.592C334.404 187.312 334.684 186.184 335.244 185.208C335.82 184.216 336.604 183.44 337.596 182.88C338.604 182.32 339.748 182.04 341.028 182.04C342.276 182.04 343.388 182.312 344.364 182.856C345.34 183.4 346.108 184.168 346.668 185.16C347.228 186.152 347.508 187.32 347.508 188.664C347.508 188.792 347.5 188.936 347.484 189.096C347.484 189.256 347.476 189.408 347.46 189.552H336.78V187.56H345.876L344.7 188.184C344.716 187.448 344.564 186.8 344.244 186.24C343.924 185.68 343.484 185.24 342.924 184.92C342.38 184.6 341.748 184.44 341.028 184.44C340.292 184.44 339.644 184.6 339.084 184.92C338.54 185.24 338.108 185.688 337.788 186.264C337.484 186.824 337.332 187.488 337.332 188.256V188.736C337.332 189.504 337.508 190.184 337.86 190.776C338.212 191.368 338.708 191.824 339.348 192.144C339.988 192.464 340.724 192.624 341.556 192.624C342.276 192.624 342.924 192.512 343.5 192.288C344.076 192.064 344.588 191.712 345.036 191.232L346.644 193.08C346.068 193.752 345.34 194.272 344.46 194.64C343.596 194.992 342.604 195.168 341.484 195.168ZM357.662 182.04C358.686 182.04 359.598 182.24 360.398 182.64C361.214 183.04 361.854 183.656 362.318 184.488C362.782 185.304 363.014 186.36 363.014 187.656V195H360.014V188.04C360.014 186.904 359.742 186.056 359.198 185.496C358.67 184.936 357.926 184.656 356.966 184.656C356.262 184.656 355.638 184.8 355.094 185.088C354.55 185.376 354.126 185.808 353.822 186.384C353.534 186.944 353.39 187.656 353.39 188.52V195H350.39V182.184H353.246V185.64L352.742 184.584C353.19 183.768 353.838 183.144 354.686 182.712C355.55 182.264 356.542 182.04 357.662 182.04ZM371.644 195.168C370.236 195.168 369.148 194.808 368.38 194.088C367.612 193.352 367.228 192.272 367.228 190.848V179.352H370.228V190.776C370.228 191.384 370.38 191.856 370.684 192.192C371.004 192.528 371.444 192.696 372.004 192.696C372.676 192.696 373.236 192.52 373.684 192.168L374.524 194.304C374.172 194.592 373.74 194.808 373.228 194.952C372.716 195.096 372.188 195.168 371.644 195.168ZM365.116 184.68V182.28H373.66V184.68H365.116ZM382.33 195.168C381.018 195.168 379.85 194.888 378.826 194.328C377.802 193.752 376.994 192.968 376.402 191.976C375.81 190.984 375.514 189.856 375.514 188.592C375.514 187.312 375.81 186.184 376.402 185.208C376.994 184.216 377.802 183.44 378.826 182.88C379.85 182.32 381.018 182.04 382.33 182.04C383.658 182.04 384.834 182.32 385.858 182.88C386.898 183.44 387.706 184.208 388.282 185.184C388.874 186.16 389.17 187.296 389.17 188.592C389.17 189.856 388.874 190.984 388.282 191.976C387.706 192.968 386.898 193.752 385.858 194.328C384.834 194.888 383.658 195.168 382.33 195.168ZM382.33 192.6C383.066 192.6 383.722 192.44 384.298 192.12C384.874 191.8 385.322 191.336 385.642 190.728C385.978 190.12 386.146 189.408 386.146 188.592C386.146 187.76 385.978 187.048 385.642 186.456C385.322 185.848 384.874 185.384 384.298 185.064C383.722 184.744 383.074 184.584 382.354 184.584C381.618 184.584 380.962 184.744 380.386 185.064C379.826 185.384 379.378 185.848 379.042 186.456C378.706 187.048 378.538 187.76 378.538 188.592C378.538 189.408 378.706 190.12 379.042 190.728C379.378 191.336 379.826 191.8 380.386 192.12C380.962 192.44 381.61 192.6 382.33 192.6ZM392.038 195V182.184H394.894V185.712L394.558 184.68C394.942 183.816 395.542 183.16 396.358 182.712C397.19 182.264 398.222 182.04 399.454 182.04V184.896C399.326 184.864 399.206 184.848 399.094 184.848C398.982 184.832 398.87 184.824 398.758 184.824C397.622 184.824 396.718 185.16 396.046 185.832C395.374 186.488 395.038 187.472 395.038 188.784V195H392.038ZM403.524 199.824C402.9 199.824 402.276 199.72 401.652 199.512C401.028 199.304 400.508 199.016 400.092 198.648L401.292 196.44C401.596 196.712 401.94 196.928 402.324 197.088C402.708 197.248 403.1 197.328 403.5 197.328C404.044 197.328 404.484 197.192 404.82 196.92C405.156 196.648 405.468 196.192 405.756 195.552L406.5 193.872L406.74 193.512L411.588 182.184H414.468L408.468 196.032C408.068 196.992 407.62 197.752 407.124 198.312C406.644 198.872 406.1 199.264 405.492 199.488C404.9 199.712 404.244 199.824 403.524 199.824ZM406.164 195.456L400.38 182.184H403.5L408.204 193.248L406.164 195.456ZM420.888 195L428.448 178.2H431.52L439.104 195H435.84L429.336 179.856H430.584L424.104 195H420.888ZM424.368 191.112L425.208 188.664H434.28L435.12 191.112H424.368ZM448.056 195.168C447.016 195.168 446.064 194.928 445.2 194.448C444.352 193.968 443.672 193.248 443.16 192.288C442.664 191.312 442.416 190.08 442.416 188.592C442.416 187.088 442.656 185.856 443.136 184.896C443.632 183.936 444.304 183.224 445.152 182.76C446 182.28 446.968 182.04 448.056 182.04C449.32 182.04 450.432 182.312 451.392 182.856C452.368 183.4 453.136 184.16 453.696 185.136C454.272 186.112 454.56 187.264 454.56 188.592C454.56 189.92 454.272 191.08 453.696 192.072C453.136 193.048 452.368 193.808 451.392 194.352C450.432 194.896 449.32 195.168 448.056 195.168ZM440.952 199.656V182.184H443.808V185.208L443.712 188.616L443.952 192.024V199.656H440.952ZM447.72 192.6C448.44 192.6 449.08 192.44 449.64 192.12C450.216 191.8 450.672 191.336 451.008 190.728C451.344 190.12 451.512 189.408 451.512 188.592C451.512 187.76 451.344 187.048 451.008 186.456C450.672 185.848 450.216 185.384 449.64 185.064C449.08 184.744 448.44 184.584 447.72 184.584C447 184.584 446.352 184.744 445.776 185.064C445.2 185.384 444.744 185.848 444.408 186.456C444.072 187.048 443.904 187.76 443.904 188.592C443.904 189.408 444.072 190.12 444.408 190.728C444.744 191.336 445.2 191.8 445.776 192.12C446.352 192.44 447 192.6 447.72 192.6ZM464.51 195.168C463.47 195.168 462.518 194.928 461.654 194.448C460.806 193.968 460.126 193.248 459.614 192.288C459.118 191.312 458.87 190.08 458.87 188.592C458.87 187.088 459.11 185.856 459.59 184.896C460.086 183.936 460.758 183.224 461.605 182.76C462.454 182.28 463.422 182.04 464.51 182.04C465.774 182.04 466.886 182.312 467.846 182.856C468.822 183.4 469.59 184.16 470.15 185.136C470.726 186.112 471.014 187.264 471.014 188.592C471.014 189.92 470.726 191.08 470.15 192.072C469.59 193.048 468.822 193.808 467.846 194.352C466.886 194.896 465.774 195.168 464.51 195.168ZM457.406 199.656V182.184H460.262V185.208L460.166 188.616L460.406 192.024V199.656H457.406ZM464.174 192.6C464.894 192.6 465.534 192.44 466.094 192.12C466.67 191.8 467.126 191.336 467.462 190.728C467.798 190.12 467.966 189.408 467.966 188.592C467.966 187.76 467.798 187.048 467.462 186.456C467.126 185.848 466.67 185.384 466.094 185.064C465.534 184.744 464.894 184.584 464.174 184.584C463.454 184.584 462.806 184.744 462.23 185.064C461.654 185.384 461.198 185.848 460.862 186.456C460.526 187.048 460.358 187.76 460.358 188.592C460.358 189.408 460.526 190.12 460.862 190.728C461.198 191.336 461.654 191.8 462.23 192.12C462.806 192.44 463.454 192.6 464.174 192.6Z" fill="#0099CC"/>
    <defs>
        <clipPath id="clip0_3_22">
            <rect width="356" height="202" fill="white"/>
        </clipPath>
    </defs>
</svg>
