<svg width="21" height="21" viewBox="0 0 21 21" fill="none" xmlns="http://www.w3.org/2000/svg">
    <path d="M9.75136 0.0100796C9.67331 0.0182905 9.43097 0.0470285 9.21737 0.0675556C6.60085 0.35083 4.00898 1.78773 2.31256 3.89382C1.07618 5.43335 0.316282 7.21922 0.0492908 9.22267C-0.0164303 9.72764 -0.0164303 11.2631 0.0492908 11.768C0.369681 14.182 1.40479 16.2799 3.10121 17.9549C3.85289 18.6939 4.59226 19.2481 5.45895 19.7203C8.9052 21.5882 13.0908 21.3994 16.3317 19.2317C17.1532 18.6816 18.0856 17.8235 18.7141 17.0435C20.9157 14.2888 21.5852 10.5528 20.468 7.19869C19.9381 5.60168 19.1084 4.2551 17.9213 3.06863C16.2577 1.41003 14.1464 0.371358 11.8051 0.0675556C11.4437 0.0182905 10.006 -0.0186584 9.75136 0.0100796ZM11.9489 1.41824C14.5285 1.85342 16.7055 3.25748 18.1554 5.42925C18.8907 6.5254 19.3713 7.78166 19.5972 9.16109C19.6958 9.78922 19.6958 11.2015 19.5972 11.8296C19.1536 14.572 17.6502 16.8465 15.3171 18.3162C14.319 18.9443 13.1196 19.3836 11.8257 19.593C11.1931 19.6956 9.78832 19.6956 9.15576 19.593C6.45298 19.1537 4.23901 17.725 2.76028 15.4629C2.07021 14.4078 1.60606 13.1762 1.38425 11.8296C1.28567 11.2015 1.28567 9.78922 1.38425 9.16109C1.71696 7.12069 2.57955 5.41693 3.99666 4.00877C5.56986 2.4446 7.53327 1.52498 9.75136 1.32382C10.195 1.28276 11.4683 1.34024 11.9489 1.41824Z" fill="#5B5B5B"/>
    <path d="M6.18188 8.19631C5.78345 8.29074 5.56986 8.74233 5.74648 9.11593C5.77934 9.18572 6.78159 10.2162 7.97689 11.4068C10.3593 13.7838 10.273 13.7181 10.6673 13.6155C10.8193 13.5744 11.0863 13.3199 13.0045 11.4068C14.1998 10.2162 15.2021 9.18572 15.235 9.11593C15.4157 8.73412 15.2144 8.30716 14.8078 8.19631C14.4545 8.10599 14.4997 8.06904 12.4131 10.1546L10.4907 12.0759L8.54784 10.1341C7.19645 8.78339 6.58032 8.19631 6.5187 8.19631C6.46941 8.19631 6.4078 8.1881 6.37494 8.17989C6.34619 8.17168 6.25993 8.17989 6.18188 8.19631Z" fill="#5B5B5B"/>
</svg>
