<svg width="45" height="45" viewBox="0 0 45 45" fill="none" xmlns="http://www.w3.org/2000/svg">
    <path fill-rule="evenodd" clip-rule="evenodd" d="M41.25 22.5C41.25 32.8552 32.8552 41.25 22.5 41.25C12.1447 41.25 3.75 32.8552 3.75 22.5C3.75 12.1447 12.1447 3.75 22.5 3.75C32.8552 3.75 41.25 12.1447 41.25 22.5ZM45 22.5C45 34.9265 34.9265 45 22.5 45C10.0736 45 0 34.9265 0 22.5C0 10.0736 10.0736 0 22.5 0C34.9265 0 45 10.0736 45 22.5ZM20.625 26.25V13.125H24.375V26.25H20.625ZM20.625 31.875V28.125H24.375V31.875H20.625Z" fill="white"/>
</svg>
