<svg width="18" height="18" viewBox="0 0 18 18" fill="none" xmlns="http://www.w3.org/2000/svg">
<path d="M4.60794 0.036182C4.43559 0.0959797 4.28433 0.229645 4.20695 0.391451C4.14363 0.518081 4.13308 0.609537 4.13308 0.950736V1.35525L3.57731 1.37635C2.80698 1.40801 2.4095 1.49947 1.87132 1.77383C0.984904 2.22408 0.348234 3.02959 0.0773853 4.05318L0 4.3381V15.0313L0.0809028 15.3444C0.165323 15.6856 0.400997 16.2097 0.58039 16.4735C0.742196 16.7057 1.12209 17.1032 1.36128 17.2896C1.81152 17.6343 2.44116 17.8946 3.01099 17.9685C3.21853 17.9966 5.07226 18.0036 9.18071 17.9966L15.055 17.9861L15.3258 17.9087C15.9554 17.7293 16.4233 17.476 16.8348 17.0961C17.4469 16.5263 17.8021 15.8861 17.9393 15.0982C18.0202 14.6374 18.0202 4.72854 17.9393 4.26775C17.8127 3.55018 17.4926 2.94165 16.9544 2.40347C16.2157 1.66479 15.4243 1.36932 14.1721 1.3658H13.8485L13.8379 0.912043C13.8238 0.472354 13.8203 0.451249 13.7183 0.307031C13.4123 -0.125624 12.7756 -0.0904485 12.5329 0.377381C12.4414 0.549739 12.4344 0.595467 12.4344 0.964806V1.3658H5.54009V0.964806C5.54009 0.595467 5.53305 0.549739 5.4416 0.377381C5.28331 0.0713571 4.92452 -0.0728609 4.60794 0.036182ZM4.13308 3.52907C4.13308 4.3381 4.15067 4.45066 4.31951 4.63005C4.67829 5.01698 5.36421 4.86221 5.50491 4.36272C5.5225 4.29237 5.54009 3.90545 5.54009 3.50093V2.77281H12.4344V3.50093C12.4344 3.90545 12.452 4.29237 12.4696 4.36272C12.6103 4.86221 13.2962 5.01698 13.655 4.63005C13.8238 4.45066 13.8414 4.3381 13.8414 3.52556V2.76226L14.3444 2.78336C14.6223 2.79391 14.9354 2.82909 15.0514 2.86075C15.6107 3.012 16.1137 3.43058 16.374 3.95821C16.5253 4.27479 16.5851 4.57729 16.5851 5.08381V5.51647H1.38942V5.08381C1.38942 4.57729 1.44922 4.27479 1.60047 3.95821C1.91001 3.33209 2.4904 2.91351 3.20094 2.80798C3.29591 2.79391 3.54565 2.77984 3.75671 2.77633L4.13308 2.77281V3.52907ZM16.5851 10.8385C16.5851 14.6444 16.5816 14.764 16.5147 15.0313C16.3389 15.7137 15.8147 16.273 15.1394 16.4946L14.8791 16.5791H3.09541L2.83512 16.4946C2.52206 16.3926 2.11754 16.1288 1.91705 15.9002C1.70599 15.6645 1.54067 15.3479 1.45977 15.0313C1.39294 14.764 1.38942 14.6409 1.38942 10.8385V6.92347H16.5851V10.8385Z" fill="#5B5B5B"/>
<path d="M3.86927 9.06564C3.63007 9.17116 3.42958 9.46312 3.42958 9.70231C3.42958 9.9415 3.63007 10.2335 3.86927 10.339C3.99238 10.3953 4.11197 10.4058 4.82955 10.4058C5.73355 10.4058 5.81093 10.3917 6.0255 10.1842C6.09585 10.1139 6.16268 10.0013 6.19434 9.88874C6.24359 9.7199 6.24359 9.68472 6.19434 9.51588C6.16268 9.40332 6.09585 9.29076 6.0255 9.22041C5.81093 9.01288 5.73355 8.99881 4.82955 8.99881C4.11197 8.99881 3.99238 9.00936 3.86927 9.06564Z" fill="#5B5B5B"/>
<path d="M7.97421 9.09026C7.56617 9.29076 7.46768 9.80783 7.76667 10.149C7.97772 10.3882 8.05511 10.4058 8.98725 10.4058C9.9018 10.4058 9.98974 10.3882 10.1973 10.1666C10.5068 9.83597 10.3837 9.26262 9.95457 9.06564C9.83145 9.00936 9.71537 8.99881 8.98373 8.99881C8.16415 8.99881 8.15712 8.99881 7.97421 9.09026Z" fill="#5B5B5B"/>
<path d="M12.1882 9.05509C11.6043 9.30835 11.6078 10.1068 12.1952 10.3495C12.3007 10.3953 12.4837 10.4058 13.145 10.4058C13.8625 10.4058 13.9821 10.3953 14.1052 10.339C14.3444 10.2335 14.5449 9.9415 14.5449 9.70231C14.5449 9.46312 14.3444 9.17116 14.1052 9.06564C13.9821 9.00936 13.8625 8.99881 13.1379 9.00232C12.4766 9.00232 12.2867 9.01288 12.1882 9.05509Z" fill="#5B5B5B"/>
<path d="M3.82354 13.2409C3.41551 13.4414 3.31702 13.9585 3.616 14.2997C3.82354 14.5389 3.90796 14.5565 4.82955 14.5565C5.49084 14.5565 5.67375 14.5459 5.77928 14.5002C6.25766 14.3032 6.37725 13.7017 6.00791 13.3535C5.81093 13.1635 5.71948 13.1495 4.82603 13.1495C4.01348 13.1495 4.00293 13.1495 3.82354 13.2409Z" fill="#5B5B5B"/>
<path d="M8.05511 13.1952C7.80536 13.2937 7.64708 13.4836 7.59783 13.751C7.54507 14.0289 7.73501 14.363 8.01993 14.4896C8.14305 14.5459 8.26264 14.5565 8.98725 14.5565C9.92291 14.5565 10.0073 14.5354 10.2113 14.2927C10.5033 13.9374 10.3767 13.4133 9.95457 13.2163C9.83145 13.16 9.71889 13.153 8.98725 13.153C8.44203 13.153 8.12546 13.1706 8.05511 13.1952Z" fill="#5B5B5B"/>
<path d="M12.1882 13.2058C11.6043 13.459 11.6078 14.2575 12.1952 14.5002C12.3007 14.5459 12.4837 14.5565 13.145 14.5565C14.0665 14.5565 14.151 14.5389 14.3585 14.2997C14.661 13.955 14.5555 13.4414 14.1439 13.2374C13.9716 13.153 13.9505 13.1495 13.1414 13.1495C12.4801 13.153 12.2867 13.1635 12.1882 13.2058Z" fill="#5B5B5B"/>
</svg>
