<svg width="41" height="41" viewBox="0 0 41 41" fill="none" xmlns="http://www.w3.org/2000/svg">
<path d="M9.319 0.167749C8.00306 0.525827 7.01834 1.1077 6.08734 2.11032C4.90568 3.3636 4.38646 4.62583 4.31485 6.39832C4.28799 7.28456 4.3059 7.60683 4.45808 8.19766C5.05786 10.561 6.76769 12.3424 9.131 13.0675C10.0083 13.345 11.7271 13.3629 12.6223 13.1123C14.9677 12.4677 16.776 10.6595 17.4205 8.31404C17.6712 7.40989 17.6533 5.70006 17.3758 4.82277C16.6954 2.62059 15.1467 1.00923 13.0251 0.293076C12.0314 -0.0381466 10.3127 -0.10081 9.319 0.167749ZM12.5596 3.20246C14.9319 4.33936 15.4869 7.35618 13.6876 9.25399C11.8524 11.1966 8.69236 10.6774 7.50175 8.25137C7.22424 7.6695 7.20633 7.58893 7.20633 6.64897C7.20633 5.69111 7.21528 5.64635 7.54651 4.98391C8.02991 4.00814 8.81769 3.32779 9.89192 2.96971C10.1157 2.8981 10.5633 2.86229 11.1004 2.88019C11.8524 2.90705 12.0225 2.94286 12.5596 3.20246Z" fill="white"/>
<path d="M28.5389 0.122989C26.1397 0.72277 24.3672 2.42364 23.6242 4.82277C23.3467 5.69111 23.3288 7.41884 23.5705 8.31404C24.2061 10.6326 26.0413 12.4767 28.3777 13.1123C29.2729 13.3629 30.9917 13.345 31.869 13.0675C33.7131 12.5036 35.1991 11.2682 36.0048 9.63893C36.5688 8.50203 36.6583 8.07233 36.6583 6.61316C36.6493 5.44941 36.6314 5.24351 36.4076 4.59897C36.0585 3.55159 35.593 2.81753 34.7336 1.95814C33.8742 1.09875 33.1312 0.624299 32.0928 0.284124C31.502 0.0961328 31.1797 0.042421 30.2129 0.0245171C29.4072 0.00661319 28.888 0.0334691 28.5389 0.122989ZM31.7079 3.23827C32.5314 3.64111 33.1133 4.24089 33.5072 5.07343C33.7758 5.6374 33.7937 5.73587 33.7937 6.65792C33.7937 7.58893 33.7758 7.67845 33.4983 8.25137C32.3434 10.6057 29.3356 11.1787 27.4467 9.38827C25.3609 7.41884 26.095 4.04395 28.8253 3.03238C29.2192 2.88915 29.4878 2.85334 30.1771 2.88019C30.9648 2.8981 31.0991 2.93391 31.7079 3.23827Z" fill="white"/>
<path d="M19.8734 13.8284C18.7902 14.0164 18.4948 14.097 17.9308 14.3208C15.9972 15.1265 14.4932 16.89 13.9919 18.949C13.8039 19.7367 13.8039 21.2407 13.9919 22.0284C14.3858 23.6308 15.3974 25.0811 16.767 26.03C18.6201 27.2922 21.1624 27.507 23.2483 26.576C26.5963 25.0632 28.0913 21.0885 26.5784 17.7315C25.7548 15.8964 24.0002 14.4461 22.0845 13.9985C21.4847 13.8643 20.2404 13.7658 19.8734 13.8284ZM21.807 16.9169C23.4989 17.5525 24.5463 19.2981 24.2688 21.0348C23.9286 23.1206 21.9681 24.5798 19.9539 24.2575C17.8681 23.9173 16.409 21.9568 16.7312 19.9426C17.0535 17.9374 18.8349 16.523 20.8133 16.702C21.1087 16.7289 21.5563 16.8274 21.807 16.9169Z" fill="white"/>
<path d="M9.75764 14.8132C4.86987 15.404 0.904149 19.1549 0.134279 23.9352C0.0626638 24.3739 0 25.0632 0 25.466C0 26.0747 0.0358079 26.2448 0.205895 26.4865C0.483406 26.9073 0.931004 27.149 1.44127 27.149C1.91572 27.149 2.21114 26.9878 2.55131 26.5313C2.75721 26.2627 2.80196 26.0926 2.86463 25.3049C2.9452 24.2933 3.03472 23.8278 3.29432 23.0848C4.17162 20.5514 6.32009 18.564 8.92511 17.8926C9.31004 17.7942 10.0352 17.6778 10.5454 17.633C11.2437 17.5793 11.5301 17.5167 11.7092 17.3824C12.5775 16.7378 12.5686 15.6367 11.7002 14.9922C11.5033 14.84 11.3063 14.8042 10.7603 14.7953C10.3843 14.7863 9.92773 14.7953 9.75764 14.8132Z" fill="white"/>
<path d="M29.5415 14.8579C28.7358 15.1981 28.3867 16.2276 28.8522 16.9079C29.2192 17.454 29.443 17.5525 30.4546 17.633C31.69 17.7405 32.6478 17.9911 33.6146 18.4745C35.7989 19.5577 37.4282 21.6167 37.9653 23.98C38.019 24.2038 38.0906 24.7946 38.1354 25.3049C38.2159 26.3075 38.2965 26.5044 38.8157 26.8983C39.4155 27.3638 40.3376 27.1758 40.7941 26.4865C40.9642 26.2448 41 26.0747 41 25.457C41 25.0542 40.9373 24.3649 40.8657 23.9263C39.9974 18.8684 35.7362 15.0459 30.6784 14.8042C30.1234 14.7774 29.6758 14.7953 29.5415 14.8579Z" fill="white"/>
<path d="M18.6111 28.7693C15.5048 29.3601 12.855 31.1505 11.2079 33.7734C10.2769 35.2505 9.75764 36.7992 9.56965 38.6612C9.46223 39.7086 9.47118 39.7354 9.67707 40.1562C10.062 40.9171 10.8498 41.2035 11.6017 40.8455C12.1299 40.5948 12.2731 40.2905 12.3985 39.1267C12.5417 37.8018 12.7297 37.1125 13.1683 36.1726C14.0009 34.3732 15.4779 32.9319 17.2773 32.1531C18.4679 31.6429 18.9692 31.5444 20.5 31.5444C22.0308 31.5444 22.5321 31.6429 23.7227 32.1531C25.5221 32.9319 26.9991 34.3732 27.8317 36.1726C28.2703 37.1036 28.4583 37.8018 28.6015 39.1177C28.7269 40.2815 28.8432 40.5501 29.3714 40.8186C30.2487 41.2573 31.1707 40.8455 31.4304 39.8876C31.5557 39.4132 31.3945 37.9092 31.0991 36.7813C30.2397 33.5049 27.7511 30.676 24.6537 29.4317C23.2751 28.8767 22.3889 28.7066 20.7686 28.6708C19.7391 28.6529 19.0856 28.6798 18.6111 28.7693Z" fill="white"/>
</svg>
