<svg width="512" height="626" viewBox="0 0 512 626" fill="none" xmlns="http://www.w3.org/2000/svg">
<path d="M164.333 1.19999C154.733 4.26665 148.467 9.59999 145 17.6C143.4 21.6 143 28.6667 143 53.8667V85.2L20.9999 86L14.7333 89.7333C3.53328 96.2667 -1.80005 109.733 1.66662 122.4C3.66662 129.867 12.3333 138.8 19.7999 141.067C27.7999 143.467 484.867 143.467 492.867 141.067C500.467 138.8 508.733 130.133 510.867 122.267C514.467 109.6 509.133 96.2667 497.933 89.7333L491.667 86L369.667 85.2V53.8667C369.667 28.6667 369.267 21.6 367.667 17.6C365 11.3333 361 7.19999 354.333 3.59999C349 0.666654 348.333 0.666654 258.333 0.399987C208.467 0.266654 166.2 0.666654 164.333 1.19999ZM313.667 85.3333H199V57.3333H313.667V85.3333Z" fill="#5B5B5B"/>
<path d="M49.3999 172.267C46.5999 172.933 41.6666 176 38.3333 178.933C27.5333 188.4 28.1999 176.267 28.5999 364.8L28.9999 531.333L32.0666 542C35.9333 556.267 45.2666 574.8 53.6666 585.067C67.9333 602.533 89.7999 616.533 113 623.067L123.667 626H389L399.667 623.067C422.867 616.533 444.733 602.533 459 585.067C467.4 574.8 476.733 556.267 480.6 542L483.667 531.333L484.067 366C484.333 247.333 484.067 198.667 483 193.733C481.933 188.933 479.933 185.067 476.2 180.8C463 165.733 439.4 168.933 430.467 186.8L427 193.867V358.133C427 518.133 426.867 522.667 424.333 530.933C419.133 548 405.667 561.333 388.467 566.8C380.467 569.2 375.267 569.333 256.333 569.333C136.733 569.333 132.333 569.2 124.067 566.667C107 561.467 93.6666 548 88.1999 530.8C85.7999 522.667 85.6666 517.2 85.6666 358V193.6L81.9333 186.533C75.7999 174.667 62.0666 168.667 49.3999 172.267Z" fill="#5B5B5B"/>
<path d="M189.933 229.467C183.8 231.333 174.2 241.2 172.467 247.467C170.467 254.667 170.467 457.333 172.467 464.533C174.467 471.733 183.533 480.4 191.4 482.533C204.067 486.133 217.4 480.8 223.933 469.6L227.667 463.333V248.667L223.933 242.4C217.4 231.2 202.6 225.6 189.933 229.467Z" fill="#5B5B5B"/>
<path d="M300.2 231.733C295 234.4 291.933 237.2 289 242L285 248.4V463.333L288.733 469.6C295.267 480.8 308.6 486.133 321.267 482.533C329.133 480.4 337.8 472.133 340.067 464.533C342.333 456.667 342.333 255.333 340.067 247.467C337.933 240.4 329.267 231.733 322.2 229.6C313.667 227.067 307.933 227.6 300.2 231.733Z" fill="#5B5B5B"/>
</svg>
