<svg width="18" height="18" viewBox="0 0 18 18" fill="none" xmlns="http://www.w3.org/2000/svg">
<path d="M8.3583 0.00863966C8.29141 0.0156775 8.08369 0.0403101 7.90061 0.0579048C5.65788 0.300712 3.43627 1.53234 1.98219 3.33756C0.922442 4.65716 0.271099 6.1879 0.0422492 7.90514C-0.0140831 8.33797 -0.0140831 9.65406 0.0422492 10.0869C0.316869 12.156 1.2041 13.9542 2.65818 15.3899C3.30248 16.0233 3.93622 16.4984 4.6791 16.9031C7.63303 18.5042 11.2207 18.3423 13.9986 16.4843C14.7027 16.0128 15.5019 15.2773 16.0406 14.6087C17.9278 12.2475 18.5016 9.04528 17.544 6.17031C17.0898 4.80144 16.3786 3.64722 15.3611 2.63025C13.9352 1.2086 12.1255 0.318306 10.1187 0.0579048C9.80886 0.0156775 8.57659 -0.0159929 8.3583 0.00863966ZM10.2419 1.21564C12.453 1.58864 14.319 2.79212 15.5618 4.65364C16.192 5.5932 16.6039 6.67 16.7976 7.85236C16.8821 8.39076 16.8821 9.60127 16.7976 10.1397C16.4173 12.4903 15.1287 14.4398 13.1289 15.6996C12.2734 16.238 11.2453 16.6145 10.1363 16.794C9.5941 16.882 8.38999 16.882 7.84779 16.794C5.53113 16.4175 3.63343 15.1929 2.36596 13.2539C1.77447 12.3496 1.37662 11.2939 1.1865 10.1397C1.102 9.60127 1.102 8.39076 1.1865 7.85236C1.47168 6.10345 2.21104 4.64309 3.42571 3.43609C4.77416 2.09537 6.45709 1.30713 8.3583 1.1347C8.73855 1.09951 9.82999 1.14878 10.2419 1.21564Z" fill="#5B5B5B"/>
<path d="M5.29876 7.02541C4.95724 7.10635 4.77416 7.49343 4.92556 7.81365C4.95372 7.87347 5.81279 8.75673 6.83733 9.77722C8.87938 11.8147 8.80544 11.7584 9.14344 11.6704C9.27371 11.6352 9.50256 11.417 11.1468 9.77722C12.1713 8.75673 13.0304 7.87347 13.0585 7.81365C13.2134 7.48639 13.0409 7.12042 12.6924 7.02541C12.3896 6.94799 12.4283 6.91632 10.6398 8.70394L8.99204 10.3508L7.32672 8.68635C6.16839 7.52862 5.64027 7.02541 5.58746 7.02541C5.54521 7.02541 5.4924 7.01837 5.46423 7.01133C5.43959 7.0043 5.36565 7.01133 5.29876 7.02541Z" fill="#5B5B5B"/>
</svg>
