<svg width="41" height="29" viewBox="0 0 41 29" fill="none" xmlns="http://www.w3.org/2000/svg">
<path d="M2.89426 0.0790918C1.51718 0.351304 0.348272 1.53623 0.0840656 2.94533C-0.0280219 3.53779 -0.0280219 25.2668 0.0840656 25.8592C0.356278 27.3003 1.51718 28.4613 2.95831 28.7335C3.55077 28.8456 37.4492 28.8456 38.0417 28.7335C39.4828 28.4613 40.6437 27.3003 40.9159 25.8592C41.028 25.2668 41.028 3.53779 40.9159 2.94533C40.6437 1.5042 39.4828 0.343298 38.0417 0.0710855C37.5053 -0.0249895 3.41466 -0.0249895 2.89426 0.0790918ZM29.8273 9.40637C25.0235 14.1861 22.6457 16.4999 22.3414 16.6841C21.2206 17.3646 19.7794 17.3646 18.6586 16.6841C18.3543 16.4999 15.9765 14.1861 11.1727 9.40637L4.12722 2.4009H36.8728L29.8273 9.40637ZM9.57147 11.1918L12.774 14.4023L8.77084 18.4134C6.56913 20.6151 4.23931 22.9289 3.5908 23.5454L2.40588 24.6663V4.13826L4.39143 6.05976C5.48028 7.11659 7.8101 9.43039 9.57147 11.1918ZM38.5781 19.5423L38.5541 24.6903L28.226 14.4023L38.5541 4.12225L38.5781 9.26226C38.5861 12.0885 38.5861 16.7161 38.5781 19.5423ZM15.336 16.9723C16.7851 18.4294 17.6258 19.0139 18.8187 19.3822C19.3231 19.5343 19.5953 19.5663 20.5 19.5663C21.733 19.5663 22.3735 19.4142 23.3022 18.9098C23.9907 18.5415 24.351 18.2373 25.5199 17.1004L26.4967 16.1396L28.4022 17.9891C29.451 19.0059 31.7808 21.3117 33.5902 23.1211L36.8728 26.4117L4.12722 26.4036L9.27524 21.2876C12.1095 18.4694 14.4473 16.1636 14.4793 16.1636C14.5113 16.1636 14.8956 16.5239 15.336 16.9723Z" fill="white"/>
</svg>
