<svg width="15" height="15" viewBox="0 0 15 15" fill="none" xmlns="http://www.w3.org/2000/svg">
<g clip-path="url(#clip0_1482_82)">
<path d="M1.69922 0.0615234C1.37402 0.114258 1.19824 0.234375 0.700195 0.729492C0.328125 1.10156 0.225586 1.22168 0.152344 1.37695C-0.0292969 1.75488 -0.0292969 2.16797 0.152344 2.54883C0.237305 2.72168 0.451172 2.94434 2.63379 5.13281L5.02148 7.5293L2.63379 9.92578C0.451172 12.1143 0.237305 12.3369 0.152344 12.5098C-0.0292969 12.8906 -0.0292969 13.3037 0.152344 13.6816C0.225586 13.8369 0.328125 13.957 0.700195 14.3291C1.27734 14.9062 1.40332 14.9795 1.86328 14.9941C2.19141 15.0088 2.3584 14.9707 2.60742 14.8301C2.68945 14.7832 3.63574 13.8604 5.12109 12.3809L7.5 10.0078L9.89649 12.3955C12.6973 15.1904 12.4453 14.9854 13.0664 14.9854C13.4238 14.9854 13.4385 14.9824 13.6377 14.8857C13.8105 14.8008 13.916 14.7129 14.2998 14.3291C14.6719 13.957 14.7744 13.8369 14.8477 13.6816C15.0293 13.3037 15.0293 12.8906 14.8477 12.5098C14.7627 12.3369 14.5488 12.1143 12.3662 9.92578L9.97852 7.5293L12.3662 5.13281C14.5488 2.94434 14.7627 2.72168 14.8477 2.54883C15.0293 2.16797 15.0293 1.75488 14.8477 1.37695C14.7744 1.22168 14.6719 1.10156 14.2998 0.729492C13.9277 0.357422 13.8076 0.254883 13.6523 0.181641C13.2744 0 12.8613 0 12.4805 0.181641C12.3076 0.266602 12.085 0.480469 9.89649 2.66309L7.5 5.05078L5.10645 2.66016C2.89453 0.454102 2.69531 0.263672 2.51953 0.181641C2.41406 0.131836 2.24121 0.0761719 2.13867 0.0615234C1.9248 0.0263672 1.92188 0.0263672 1.69922 0.0615234Z" fill="#AF3131"/>
</g>
<defs>
<clipPath id="clip0_1482_82">
<rect width="15" height="15" fill="white"/>
</clipPath>
</defs>
</svg>
