<svg width="19" height="18" viewBox="0 0 19 18" fill="none" xmlns="http://www.w3.org/2000/svg">
<path d="M8.64871 0.0218405C6.81129 0.190873 5.11521 0.831786 3.62742 1.91641C2.90212 2.44464 1.96109 3.4377 1.41805 4.24765C1.18372 4.59627 0.726227 5.48369 0.56257 5.90627C0.380316 6.37816 0.183184 7.10359 0.0864778 7.6635C-0.0288259 8.3502 -0.0288259 9.65315 0.0864778 10.3398C0.253854 11.3118 0.517937 12.0936 0.967993 12.9634C1.45896 13.9107 1.96853 14.5833 2.78682 15.3615C3.60882 16.1362 4.31924 16.6187 5.31978 17.0835C6.23849 17.5096 7.06421 17.7597 8.09079 17.9181C8.81608 18.0273 10.1923 18.0273 10.9176 17.9181C11.9442 17.7597 12.7699 17.5096 13.6886 17.0835C14.6891 16.6187 15.3995 16.1362 16.2216 15.3615C17.0398 14.5833 17.5494 13.9107 18.0404 12.9634C18.3677 12.333 18.5313 11.921 18.7099 11.2871C18.9442 10.442 19 9.98065 19 9.00168C19 8.0227 18.9442 7.56138 18.7099 6.71622C18.5313 6.08235 18.3677 5.67033 18.0404 5.03998C17.5494 4.0927 17.0398 3.42009 16.2216 2.64184C15.3995 1.86711 14.6891 1.38466 13.6886 0.919824C12.7736 0.493722 11.9256 0.240174 10.9362 0.0922706C10.3894 0.011276 9.16943 -0.0274606 8.64871 0.0218405ZM10.5456 1.33888C14.2391 1.81076 17.0993 4.5188 17.5978 8.01565C17.7056 8.78686 17.6498 9.90318 17.4676 10.6814C16.7162 13.8473 13.9638 16.2278 10.5456 16.6645C10.0435 16.7279 8.96486 16.7279 8.46273 16.6645C4.76929 16.1926 1.90902 13.4846 1.41061 9.9877C1.34366 9.51229 1.34366 8.49106 1.41061 8.01565C1.9053 4.53289 4.75442 1.82485 8.42554 1.3424C8.90535 1.27902 10.0584 1.27902 10.5456 1.33888Z" fill="#5B5B5B"/>
<path d="M9.24382 4.76179C9.07645 4.83222 8.9909 4.90617 8.90535 5.06463C8.8384 5.18789 8.83468 5.29353 8.83468 6.78313V8.36781H7.15348C5.47599 8.36781 5.46856 8.36781 5.31978 8.4488C4.85484 8.69883 4.85484 9.30453 5.31978 9.55455C5.46856 9.63555 5.47599 9.63555 7.15348 9.63555H8.83468V11.2273C8.83468 12.8155 8.83468 12.8225 8.92023 12.9634C9.18431 13.4036 9.82406 13.4036 10.0881 12.9634C10.1737 12.8225 10.1737 12.8155 10.1737 11.2273V9.63555H11.8586C13.5324 9.63555 13.5398 9.63555 13.6886 9.55455C14.1535 9.30453 14.1535 8.69883 13.6886 8.4488C13.5398 8.36781 13.5324 8.36781 11.8586 8.36781H10.1737V6.78313C10.1737 5.29353 10.17 5.18789 10.103 5.06463C10.0175 4.90265 9.93192 4.82869 9.75339 4.75826C9.58601 4.69136 9.4112 4.69136 9.24382 4.76179Z" fill="#5B5B5B"/>
</svg>
