<svg width="33" height="33" viewBox="0 0 33 33" fill="none" xmlns="http://www.w3.org/2000/svg">
<rect x="0.5" y="0.5" width="32" height="32" rx="16" fill="white"/>
<rect x="0.5" y="0.5" width="32" height="32" rx="16" stroke="#0099CC"/>
<path d="M10.2156 9.05086C9.65006 9.20156 9.20832 9.65364 9.05773 10.2263C8.98076 10.5143 8.98076 22.4829 9.05773 22.7709C9.20832 23.3502 9.65341 23.799 10.229 23.9497C10.403 23.9932 11.156 23.9999 16.5037 23.9999C23.1298 23.9999 22.745 24.01 23.1365 23.8124C23.3741 23.6918 23.6686 23.4005 23.7958 23.1661C24.01 22.7609 23.9999 23.0221 23.9999 18.1496C23.9999 14.4223 23.9932 13.699 23.9531 13.6086C23.8928 13.4679 19.4989 9.07765 19.3717 9.03077C19.3081 9.00733 17.849 8.99728 14.8372 9.00063C11.069 9.00063 10.3696 9.01067 10.2156 9.05086ZM11.1493 10.9664C11.1493 11.6529 11.1593 11.9074 11.1995 12.0547C11.3501 12.6341 11.7952 13.0828 12.3708 13.2335C12.6619 13.3072 16.5941 13.3105 16.8819 13.2335C17.4608 13.0828 17.9093 12.6374 18.0599 12.0614C18.1 11.9074 18.1101 11.6629 18.1101 10.9664V10.0689H18.9634L22.929 14.0372L22.9223 18.3136C22.9123 22.5733 22.9123 22.5901 22.842 22.6805C22.6948 22.8814 22.6178 22.9116 22.2229 22.9216L21.8582 22.935V20.4267C21.8582 17.7042 21.8615 17.7377 21.6708 17.3626C21.5503 17.1248 21.2591 16.8301 21.0249 16.7029C20.6233 16.4885 20.8308 16.4986 16.5037 16.4986C12.1767 16.4986 12.3842 16.4885 11.9826 16.7029C11.7483 16.8301 11.4572 17.1248 11.3367 17.3626C11.146 17.7377 11.1493 17.7042 11.1493 20.4267V22.935L10.7845 22.9216C10.3896 22.9116 10.3127 22.8814 10.1654 22.6805L10.0951 22.5901L10.0851 16.589C10.0818 13.2871 10.0851 10.5411 10.0951 10.4808C10.1186 10.3468 10.2591 10.1761 10.3963 10.1158C10.4566 10.089 10.6272 10.0722 10.8247 10.0689H11.1493V10.9664ZM17.0325 10.9697C17.0224 11.8203 17.0191 11.8772 16.9522 11.9643C16.9153 12.0145 16.8417 12.0882 16.7915 12.1251C16.7012 12.1954 16.6677 12.1954 14.6297 12.1954C12.5916 12.1954 12.5582 12.1954 12.4678 12.1251C12.4176 12.0882 12.344 12.0145 12.3072 11.9643C12.2403 11.8772 12.2369 11.8203 12.2269 10.9697L12.2168 10.0689H17.0425L17.0325 10.9697ZM20.5396 17.6573C20.5898 17.6941 20.6634 17.7678 20.7003 17.818C20.7705 17.9084 20.7705 17.9453 20.7806 20.42L20.7873 22.9283H12.2202V20.4703C12.2202 18.8093 12.2302 17.9788 12.257 17.9151C12.3038 17.7912 12.4143 17.6707 12.5381 17.6171C12.6218 17.5803 13.3413 17.5736 16.5439 17.5803C20.4292 17.587 20.4493 17.587 20.5396 17.6573Z" fill="#5B5B5B"/>
<path d="M14.1444 18.6887C13.9202 18.7858 13.793 19.0437 13.8399 19.2948C13.87 19.4522 14.0373 19.6364 14.1879 19.68C14.2716 19.7067 15.048 19.7134 16.5774 19.7067C18.8028 19.6967 18.8429 19.6967 18.9333 19.6264C19.1107 19.4958 19.1642 19.3886 19.1642 19.1776C19.1642 18.9667 19.1107 18.8595 18.9333 18.7289C18.8429 18.6586 18.8061 18.6586 16.5439 18.6519C14.6832 18.6452 14.2247 18.6519 14.1444 18.6887Z" fill="#5B5B5B"/>
<path d="M14.1444 20.8319C13.9202 20.9291 13.793 21.1869 13.8399 21.4381C13.87 21.5955 14.0373 21.7797 14.1879 21.8232C14.2716 21.85 15.048 21.8567 16.5774 21.85C18.8028 21.8399 18.8429 21.8399 18.9333 21.7696C19.1107 21.639 19.1642 21.5318 19.1642 21.3209C19.1642 21.1099 19.1107 21.0027 18.9333 20.8721C18.8429 20.8018 18.8061 20.8018 16.5439 20.7951C14.6832 20.7884 14.2247 20.7951 14.1444 20.8319Z" fill="#5B5B5B"/>
</svg>
