<svg width="41" height="38" viewBox="0 0 41 38" fill="none" xmlns="http://www.w3.org/2000/svg">
<path d="M21.0788 0.049395C13.4253 0.674499 7.05404 5.7154 4.68986 13.0323C4.52958 13.5372 4.38533 13.962 4.37731 13.978C4.36128 13.986 4.05675 13.5452 3.68809 12.9923C3.31944 12.4393 2.90271 11.8783 2.75845 11.7581C1.96505 11.0608 0.682786 11.2933 0.185908 12.2229C-0.0304741 12.6396 -0.0625307 13.393 0.113781 13.7456C0.434347 14.3547 4.17696 19.9165 4.39334 20.1008C4.73795 20.3893 5.15468 20.5095 5.66759 20.4695C6.08433 20.4294 6.24461 20.3412 9.08162 18.4339C10.7165 17.3359 12.1591 16.3502 12.2793 16.246C12.8483 15.7732 13.0086 14.8756 12.6479 14.1784C12.3033 13.4972 11.3657 13.1045 10.6364 13.3449C10.4841 13.401 9.75481 13.8498 9.01751 14.3547C8.27219 14.8596 7.6551 15.2603 7.63907 15.2523C7.599 15.2042 7.9356 14.0822 8.18404 13.4571C9.25793 10.7323 10.989 8.47227 13.3131 6.74122C19.3478 2.24527 27.8107 2.86236 33.1401 8.18376C36.0172 11.0608 37.588 14.8676 37.588 18.9628C37.588 21.5273 37.059 23.6671 35.8569 26.0153C35.1757 27.3296 34.4544 28.3314 33.3885 29.4373C31.946 30.936 30.808 31.7694 29.0529 32.6269C23.8357 35.1674 17.8731 34.5744 13.2009 31.0482C12.3033 30.375 10.973 29.0286 10.2357 28.0509C9.54644 27.1212 9.20183 26.8968 8.52864 26.8968C7.26241 26.9048 6.43695 28.2111 6.99794 29.3091C7.47879 30.2628 9.31403 32.3064 10.7005 33.4284C12.7681 35.1113 15.3166 36.3936 17.8651 37.0347C20.8704 37.7881 23.9719 37.7881 26.9692 37.0347C31.4411 35.9047 35.336 33.1639 37.9005 29.3251C39.3751 27.1212 40.417 24.4124 40.8497 21.6876C41.0501 20.3973 41.0501 17.376 40.8497 16.0777C39.9361 10.2194 36.5221 5.24257 31.4411 2.38151C28.3557 0.642443 24.4928 -0.223086 21.0788 0.049395Z" fill="white"/>
<path d="M21.4956 8.63256C21.0788 8.84093 20.7021 9.2817 20.5899 9.68241C20.5419 9.87475 20.5178 11.694 20.5339 14.6512C20.5579 18.8426 20.5739 19.3475 20.6941 19.5639C20.9185 19.9646 26.1918 25.286 26.5605 25.4783C27.3299 25.879 28.3797 25.5985 28.8045 24.8692C29.085 24.3884 29.133 24.0278 28.9808 23.5068C28.8606 23.0981 28.7163 22.9298 26.4162 20.5897L23.9719 18.1053L23.9238 9.69043L23.6834 9.30575C23.2186 8.56043 22.2489 8.26391 21.4956 8.63256Z" fill="white"/>
</svg>
