<svg width="46" height="46" viewBox="0 0 46 46" fill="none" xmlns="http://www.w3.org/2000/svg">
    <path d="M39.0805 6.76397C30.2933 -2.02324 16.0466 -2.02324 7.2612 6.76415C-1.52593 15.5513 -1.52593 29.7979 7.26155 38.5833C16.0466 47.3704 30.2933 47.3704 39.0805 38.5831C47.8677 29.7979 47.8677 15.5513 39.0805 6.76397ZM36.429 35.9313C29.1061 43.2542 17.2341 43.2542 9.91321 35.9317C2.59034 28.6105 2.59034 16.7384 9.91303 9.41572C17.2341 2.09294 29.1061 2.09294 36.4288 9.41572C43.7515 16.7385 43.7515 28.6105 36.429 35.9313Z" fill="white"/>
    <path d="M33.0947 13.8481L21.2955 25.6473L15.1214 19.4731C14.3892 18.7409 13.2019 18.7409 12.4697 19.4731C11.7375 20.2054 11.7375 21.3926 12.4697 22.1248L19.9697 29.6248C20.7019 30.357 21.8891 30.357 22.6213 29.6248L35.7463 16.4998C36.4785 15.7676 36.4785 14.5804 35.7463 13.8481C35.0141 13.1159 33.8269 13.1159 33.0947 13.8481Z" fill="white"/>
</svg>
