<svg width="41" height="41" viewBox="0 0 41 41" fill="none" xmlns="http://www.w3.org/2000/svg">
<path d="M19.5982 0.0561002C17.7867 0.424759 16.2958 1.73911 15.6866 3.50226L15.5103 4.02319L15.4862 16.2851C15.4702 28.4188 15.4702 28.547 15.6305 28.8115C15.7187 28.9557 15.903 29.1401 16.0473 29.2282C16.3439 29.4045 16.905 29.4446 17.1775 29.2923C17.2737 29.2442 18.436 28.3867 19.7586 27.3929L22.1632 25.5817L29.5777 25.5416C36.9762 25.5016 36.9922 25.5016 37.5132 25.3252C39.0522 24.7963 40.2145 23.6502 40.7836 22.0794L41 21.4944V4.18347L40.8156 3.5824C40.5672 2.78898 40.2385 2.23599 39.6614 1.61088C39.0442 0.961718 38.3629 0.512916 37.5533 0.232415L36.912 0.0160286L28.4154 0C23.7423 0 19.7746 0.0240429 19.5982 0.0561002ZM37.0323 2.6287C37.6735 2.92523 38.0342 3.27785 38.3308 3.88694L38.5953 4.4239L38.6194 12.5184C38.6354 18.5051 38.6194 20.725 38.5472 21.0536C38.3629 21.9192 37.7296 22.6645 36.904 22.977C36.4712 23.1373 36.3109 23.1373 29.1128 23.1373C24.4156 23.1373 21.6583 23.1694 21.4819 23.2175C21.3296 23.2656 20.4639 23.8586 19.5582 24.5318L17.915 25.774L17.8909 15.1631C17.8749 4.7044 17.8749 4.54412 18.0352 4.11936C18.3238 3.34998 19.0211 2.70884 19.7986 2.49245C20.0792 2.41231 21.9949 2.39628 28.3754 2.40429L36.5914 2.42032L37.0323 2.6287Z" fill="white"/>
<path d="M21.4499 6.46755C20.993 6.61181 20.6002 7.14877 20.6002 7.64566C20.6002 7.96623 20.8567 8.399 21.1613 8.60738L21.4258 8.79171H28.207C35.9181 8.79171 35.381 8.83979 35.7337 8.12652C35.886 7.82999 35.9101 7.68573 35.87 7.42927C35.7979 7.01253 35.4131 6.59578 34.9883 6.47557C34.5955 6.37138 21.8106 6.36337 21.4499 6.46755Z" fill="white"/>
<path d="M21.1853 11.757C20.4479 12.2058 20.4158 13.1916 21.1292 13.7285L21.4258 13.9609L28.0307 13.985C32.7439 14.001 34.7318 13.977 34.9722 13.9129C35.4051 13.8007 35.7979 13.3839 35.87 12.9672C35.9421 12.5344 35.6936 11.9814 35.3329 11.757C35.0764 11.5967 34.9562 11.5967 28.2551 11.5967C21.6422 11.5967 21.4338 11.6047 21.1853 11.757Z" fill="white"/>
<path d="M21.2414 16.8781C20.4399 17.3029 20.4158 18.3448 21.1934 18.9218C21.4098 19.0821 21.522 19.0901 24.9527 19.1141C28.2872 19.1302 28.5116 19.1222 28.7761 18.9859C29.6338 18.5211 29.6338 17.2949 28.7761 16.8701C28.5196 16.7419 28.167 16.7259 25.0088 16.7259C21.7625 16.7259 21.4979 16.7339 21.2414 16.8781Z" fill="white"/>
<path d="M6.77322 19.3466C5.77126 19.4828 4.43265 20.0759 3.63109 20.733C2.54096 21.6226 1.72336 22.969 1.44282 24.3555C1.25846 25.2291 1.24242 25.9103 1.39472 26.7438C1.62717 28.0261 2.16422 29.0519 3.11808 30.0537C3.44673 30.3903 3.69521 30.6868 3.67918 30.7028C3.66315 30.7109 3.51085 30.815 3.34252 30.9353C2.3085 31.6165 1.3306 32.7705 0.761486 33.9807C0.144281 35.279 0 36.1446 0 38.5088C0 40.304 0.0721407 40.5605 0.641251 40.849C0.953861 41.0093 1.06608 41.0093 7.72708 40.9932C14.4201 40.9692 14.5003 40.9692 14.7167 40.8009C14.837 40.7127 15.0133 40.5364 15.1015 40.4162C15.2618 40.2078 15.2698 40.0956 15.2618 38.2203C15.2457 36.0484 15.1656 35.4874 14.6847 34.3093C14.1957 33.0911 13.0815 31.7126 12.0315 30.9914L11.5586 30.6788L12.1758 30.0537C14.4682 27.7055 14.5885 23.9868 12.4323 21.5104C11.0295 19.8835 8.8653 19.058 6.77322 19.3466ZM8.53666 21.823C10.3322 22.2878 11.5666 23.8266 11.5666 25.6138C11.5666 26.7117 11.1738 27.6494 10.4123 28.4107C9.64282 29.1881 8.74506 29.5568 7.63089 29.5568C4.95367 29.5568 3.04594 26.896 3.91965 24.3876C4.59296 22.4641 6.64497 21.3261 8.53666 21.823ZM8.89736 32.1614C9.82718 32.3778 10.5406 32.7946 11.3021 33.5559C12.4242 34.6779 12.793 35.5996 12.8811 37.499L12.9292 38.605H2.38866L2.42874 37.4188C2.45279 36.6334 2.5089 36.0965 2.60508 35.7999C3.17419 33.9887 4.53685 32.6503 6.28426 32.1935C6.98964 32.0092 8.18397 31.9931 8.89736 32.1614Z" fill="white"/>
</svg>
