<svg width="22" height="20" viewBox="0 0 22 20" fill="none" xmlns="http://www.w3.org/2000/svg">
<path d="M10.4285 0.0321455C9.35655 0.199079 8.38795 0.811168 7.78527 1.6972C7.58294 1.99254 0.565978 14.0802 0.389477 14.4355C-0.221816 15.6511 -0.105585 17.1578 0.682209 18.3135C1.21171 19.0925 2.02103 19.6575 2.95949 19.9015L3.32541 20H10.9451C19.1157 20 18.7799 20.0085 19.4128 19.7859C19.9939 19.5805 20.3943 19.3237 20.842 18.8828C21.195 18.5318 21.4188 18.2151 21.647 17.7399C21.9182 17.1706 22 16.8025 22 16.1048C22 15.4071 21.9182 15.039 21.647 14.474C21.4877 14.1444 14.7377 2.48478 14.3287 1.83417C13.9197 1.17928 13.1535 0.520105 12.5293 0.288966C11.8749 0.0449866 11.0268 -0.0577417 10.4285 0.0321455ZM11.354 1.79137C11.8706 1.87269 12.3872 2.17232 12.6799 2.56611C12.8736 2.82293 19.8648 14.8507 20.0542 15.2488C20.3512 15.8694 20.2824 16.657 19.8777 17.2777C19.5505 17.787 18.9737 18.1423 18.3495 18.2236C18.117 18.2536 15.6632 18.2664 10.7729 18.2579L3.54065 18.245L3.25223 18.1466C2.06408 17.7485 1.44848 16.4087 1.94354 15.3001C2.02964 15.1032 8.93037 3.19532 9.23602 2.70736C9.5761 2.16804 10.2821 1.77853 10.9666 1.74856C11.0268 1.74856 11.199 1.76569 11.354 1.79137Z" fill="#E08D2A"/>
<path d="M10.7341 6.17444C10.3725 6.26861 10.097 6.52543 9.9291 6.9235C9.85161 7.1204 9.85592 7.39434 9.97215 9.2991C10.0238 10.168 10.0927 11.2895 10.1228 11.786C10.1874 12.8732 10.2304 12.9888 10.6179 13.1814C10.8848 13.3183 11.0699 13.3312 11.3024 13.2327C11.6726 13.0786 11.8706 12.7277 11.8706 12.2354C11.8663 12.1027 11.9309 10.9128 12.0084 9.59016C12.1633 6.94063 12.1633 6.96203 11.9093 6.5982C11.6683 6.24721 11.1646 6.06744 10.7341 6.17444Z" fill="#E08D2A"/>
<path d="M10.7083 14.1102C10.1874 14.2771 9.86023 14.7437 9.89897 15.2573C9.94632 15.8737 10.394 16.2932 11.0053 16.2975C11.4444 16.2975 11.806 16.0749 12.0084 15.6811C12.1203 15.4671 12.1332 14.9834 12.0342 14.7523C11.9395 14.5382 11.7156 14.2943 11.509 14.1915C11.3196 14.0974 10.8848 14.0503 10.7083 14.1102Z" fill="#E08D2A"/>
</svg>
